<?xml version="1.0" encoding="UTF-8"?>
<svg width="376px" height="239px" viewBox="0 0 376 239" version="1.1" xmlns="http://www.w3.org/2000/svg" xmlns:xlink="http://www.w3.org/1999/xlink">
    <!-- Generator: Sketch 59.1 (86144) - https://sketch.com -->
    <title>Edge detection filters</title>
    <desc>Created with Sketch.</desc>
    <g id="Edge-detection-filters" stroke="none" stroke-width="1" fill="none" fill-rule="evenodd">
        <g id="Group-3" transform="translate(40.000000, 66.000000)">
            <rect id="Rectangle-Copy-49" stroke="#FFFFFF" fill="#632EE4" x="0" y="0" width="40" height="40"></rect>
            <rect id="Rectangle-Copy-50" stroke="#FFFFFF" fill="#632EE4" x="0" y="40" width="40" height="40"></rect>
            <rect id="Rectangle-Copy-51" stroke="#FFFFFF" fill="#632EE4" x="40" y="0" width="40" height="40"></rect>
            <rect id="Rectangle-Copy-52" stroke="#FFFFFF" fill="#632EE4" x="40" y="40" width="40" height="40"></rect>
            <polygon id="1" fill="#FFFFFF" fill-rule="nonzero" points="15.872 24.896 18.352 24.896 18.352 26 12.08 26 12.08 24.896 14.56 24.896 14.56 16.352 12.576 17.6 11.968 16.592 14.928 14.72 15.872 14.72"></polygon>
            <polygon id="1" fill="#FFFFFF" fill-rule="nonzero" points="15.872 64.896 18.352 64.896 18.352 66 12.08 66 12.08 64.896 14.56 64.896 14.56 56.352 12.576 57.6 11.968 56.592 14.928 54.72 15.872 54.72"></polygon>
            <path d="M54.8,14.592 C56.0906731,14.592 57.0719966,15.0799951 57.744,16.056 C58.4160034,17.0320049 58.752,18.4639906 58.752,20.352 C58.752,22.2400094 58.4160034,23.6746618 57.744,24.656 C57.0719966,25.6373382 56.0906731,26.128 54.8,26.128 C53.5093269,26.128 52.5280034,25.6373382 51.856,24.656 C51.1839966,23.6746618 50.848,22.2453427 50.848,20.368 C50.848,18.4799906 51.1839966,17.0453382 51.856,16.064 C52.5280034,15.0826618 53.5093269,14.592 54.8,14.592 Z M54.8,15.712 C53.9039955,15.712 53.2426688,16.0853296 52.816,16.832 C52.3893312,17.5786704 52.176,18.751992 52.176,20.352 C52.176,21.952008 52.3893312,23.1306629 52.816,23.888 C53.2426688,24.6453371 53.9039955,25.024 54.8,25.024 C55.6960045,25.024 56.3573312,24.6453371 56.784,23.888 C57.2106688,23.1306629 57.424,21.952008 57.424,20.352 C57.424,18.7413253 57.2133354,17.565337 56.792,16.824 C56.3706646,16.082663 55.7066712,15.712 54.8,15.712 Z" id="0" fill="#FFFFFF" fill-rule="nonzero"></path>
            <path d="M54.8,54.592 C56.0906731,54.592 57.0719966,55.0799951 57.744,56.056 C58.4160034,57.0320049 58.752,58.4639906 58.752,60.352 C58.752,62.2400094 58.4160034,63.6746618 57.744,64.656 C57.0719966,65.6373382 56.0906731,66.128 54.8,66.128 C53.5093269,66.128 52.5280034,65.6373382 51.856,64.656 C51.1839966,63.6746618 50.848,62.2453427 50.848,60.368 C50.848,58.4799906 51.1839966,57.0453382 51.856,56.064 C52.5280034,55.0826618 53.5093269,54.592 54.8,54.592 Z M54.8,55.712 C53.9039955,55.712 53.2426688,56.0853296 52.816,56.832 C52.3893312,57.5786704 52.176,58.751992 52.176,60.352 C52.176,61.952008 52.3893312,63.1306629 52.816,63.888 C53.2426688,64.6453371 53.9039955,65.024 54.8,65.024 C55.6960045,65.024 56.3573312,64.6453371 56.784,63.888 C57.2106688,63.1306629 57.424,61.952008 57.424,60.352 C57.424,58.7413253 57.2133354,57.565337 56.792,56.824 C56.3706646,56.082663 55.7066712,55.712 54.8,55.712 Z" id="0" fill="#FFFFFF" fill-rule="nonzero"></path>
            <rect id="Rectangle-Copy-53" stroke="#FFFFFF" fill="#632EE4" x="80" y="0" width="40" height="40"></rect>
            <rect id="Rectangle-Copy-54" stroke="#FFFFFF" fill="#632EE4" x="80" y="40" width="40" height="40"></rect>
            <path d="M91.152,22.272 L91.152,21.2 L95.632,21.2 L95.632,22.272 L91.152,22.272 Z M102.672,24.896 L105.152,24.896 L105.152,26 L98.88,26 L98.88,24.896 L101.36,24.896 L101.36,16.352 L99.376,17.6 L98.768,16.592 L101.728,14.72 L102.672,14.72 L102.672,24.896 Z" id="-1" fill="#FFFFFF" fill-rule="nonzero"></path>
            <path d="M91.152,62.272 L91.152,61.2 L95.632,61.2 L95.632,62.272 L91.152,62.272 Z M102.672,64.896 L105.152,64.896 L105.152,66 L98.88,66 L98.88,64.896 L101.36,64.896 L101.36,56.352 L99.376,57.6 L98.768,56.592 L101.728,54.72 L102.672,54.72 L102.672,64.896 Z" id="-1" fill="#FFFFFF" fill-rule="nonzero"></path>
            <rect id="Rectangle-Copy-55" stroke="#FFFFFF" fill="#632EE4" x="0" y="80" width="40" height="40"></rect>
            <rect id="Rectangle-Copy-56" stroke="#FFFFFF" fill="#632EE4" x="40" y="80" width="40" height="40"></rect>
            <polygon id="1" fill="#FFFFFF" fill-rule="nonzero" points="15.872 104.896 18.352 104.896 18.352 106 12.08 106 12.08 104.896 14.56 104.896 14.56 96.352 12.576 97.6 11.968 96.592 14.928 94.72 15.872 94.72"></polygon>
            <path d="M54.8,94.592 C56.0906731,94.592 57.0719966,95.0799951 57.744,96.056 C58.4160034,97.0320049 58.752,98.4639906 58.752,100.352 C58.752,102.240009 58.4160034,103.674662 57.744,104.656 C57.0719966,105.637338 56.0906731,106.128 54.8,106.128 C53.5093269,106.128 52.5280034,105.637338 51.856,104.656 C51.1839966,103.674662 50.848,102.245343 50.848,100.368 C50.848,98.4799906 51.1839966,97.0453382 51.856,96.064 C52.5280034,95.0826618 53.5093269,94.592 54.8,94.592 Z M54.8,95.712 C53.9039955,95.712 53.2426688,96.0853296 52.816,96.832 C52.3893312,97.5786704 52.176,98.751992 52.176,100.352 C52.176,101.952008 52.3893312,103.130663 52.816,103.888 C53.2426688,104.645337 53.9039955,105.024 54.8,105.024 C55.6960045,105.024 56.3573312,104.645337 56.784,103.888 C57.2106688,103.130663 57.424,101.952008 57.424,100.352 C57.424,98.7413253 57.2133354,97.565337 56.792,96.824 C56.3706646,96.082663 55.7066712,95.712 54.8,95.712 Z" id="0" fill="#FFFFFF" fill-rule="nonzero"></path>
            <rect id="Rectangle-Copy-57" stroke="#FFFFFF" fill="#632EE4" x="80" y="80" width="40" height="40"></rect>
            <path d="M91.152,102.272 L91.152,101.2 L95.632,101.2 L95.632,102.272 L91.152,102.272 Z M102.672,104.896 L105.152,104.896 L105.152,106 L98.88,106 L98.88,104.896 L101.36,104.896 L101.36,96.352 L99.376,97.6 L98.768,96.592 L101.728,94.72 L102.672,94.72 L102.672,104.896 Z" id="-1" fill="#FFFFFF" fill-rule="nonzero"></path>
        </g>
        <g id="Group-3-Copy" transform="translate(216.000000, 66.000000)">
            <rect id="Rectangle-Copy-49" stroke="#FFFFFF" fill="#632EE4" x="0" y="0" width="40" height="40"></rect>
            <rect id="Rectangle-Copy-50" stroke="#FFFFFF" fill="#632EE4" x="0" y="40" width="40" height="40"></rect>
            <rect id="Rectangle-Copy-51" stroke="#FFFFFF" fill="#632EE4" x="40" y="0" width="40" height="40"></rect>
            <rect id="Rectangle-Copy-52" stroke="#FFFFFF" fill="#632EE4" x="40" y="40" width="40" height="40"></rect>
            <polygon id="1" fill="#FFFFFF" fill-rule="nonzero" points="15.872 24.896 18.352 24.896 18.352 26 12.08 26 12.08 24.896 14.56 24.896 14.56 16.352 12.576 17.6 11.968 16.592 14.928 14.72 15.872 14.72"></polygon>
            <path d="M14.8,54.592 C16.0906731,54.592 17.0719966,55.0799951 17.744,56.056 C18.4160034,57.0320049 18.752,58.4639906 18.752,60.352 C18.752,62.2400094 18.4160034,63.6746618 17.744,64.656 C17.0719966,65.6373382 16.0906731,66.128 14.8,66.128 C13.5093269,66.128 12.5280034,65.6373382 11.856,64.656 C11.1839966,63.6746618 10.848,62.2453427 10.848,60.368 C10.848,58.4799906 11.1839966,57.0453382 11.856,56.064 C12.5280034,55.0826618 13.5093269,54.592 14.8,54.592 Z M14.8,55.712 C13.9039955,55.712 13.2426688,56.0853296 12.816,56.832 C12.3893312,57.5786704 12.176,58.751992 12.176,60.352 C12.176,61.952008 12.3893312,63.1306629 12.816,63.888 C13.2426688,64.6453371 13.9039955,65.024 14.8,65.024 C15.6960045,65.024 16.3573312,64.6453371 16.784,63.888 C17.2106688,63.1306629 17.424,61.952008 17.424,60.352 C17.424,58.7413253 17.2133354,57.565337 16.792,56.824 C16.3706646,56.082663 15.7066712,55.712 14.8,55.712 Z" id="0" fill="#FFFFFF" fill-rule="nonzero"></path>
            <polygon id="1" fill="#FFFFFF" fill-rule="nonzero" points="55.872 24.896 58.352 24.896 58.352 26 52.08 26 52.08 24.896 54.56 24.896 54.56 16.352 52.576 17.6 51.968 16.592 54.928 14.72 55.872 14.72"></polygon>
            <path d="M54.8,54.592 C56.0906731,54.592 57.0719966,55.0799951 57.744,56.056 C58.4160034,57.0320049 58.752,58.4639906 58.752,60.352 C58.752,62.2400094 58.4160034,63.6746618 57.744,64.656 C57.0719966,65.6373382 56.0906731,66.128 54.8,66.128 C53.5093269,66.128 52.5280034,65.6373382 51.856,64.656 C51.1839966,63.6746618 50.848,62.2453427 50.848,60.368 C50.848,58.4799906 51.1839966,57.0453382 51.856,56.064 C52.5280034,55.0826618 53.5093269,54.592 54.8,54.592 Z M54.8,55.712 C53.9039955,55.712 53.2426688,56.0853296 52.816,56.832 C52.3893312,57.5786704 52.176,58.751992 52.176,60.352 C52.176,61.952008 52.3893312,63.1306629 52.816,63.888 C53.2426688,64.6453371 53.9039955,65.024 54.8,65.024 C55.6960045,65.024 56.3573312,64.6453371 56.784,63.888 C57.2106688,63.1306629 57.424,61.952008 57.424,60.352 C57.424,58.7413253 57.2133354,57.565337 56.792,56.824 C56.3706646,56.082663 55.7066712,55.712 54.8,55.712 Z" id="0" fill="#FFFFFF" fill-rule="nonzero"></path>
            <rect id="Rectangle-Copy-53" stroke="#FFFFFF" fill="#632EE4" x="80" y="0" width="40" height="40"></rect>
            <rect id="Rectangle-Copy-54" stroke="#FFFFFF" fill="#632EE4" x="80" y="40" width="40" height="40"></rect>
            <polygon id="1" fill="#FFFFFF" fill-rule="nonzero" points="95.872 24.896 98.352 24.896 98.352 26 92.08 26 92.08 24.896 94.56 24.896 94.56 16.352 92.576 17.6 91.968 16.592 94.928 14.72 95.872 14.72"></polygon>
            <path d="M94.8,54.592 C96.0906731,54.592 97.0719966,55.0799951 97.744,56.056 C98.4160034,57.0320049 98.752,58.4639906 98.752,60.352 C98.752,62.2400094 98.4160034,63.6746618 97.744,64.656 C97.0719966,65.6373382 96.0906731,66.128 94.8,66.128 C93.5093269,66.128 92.5280034,65.6373382 91.856,64.656 C91.1839966,63.6746618 90.848,62.2453427 90.848,60.368 C90.848,58.4799906 91.1839966,57.0453382 91.856,56.064 C92.5280034,55.0826618 93.5093269,54.592 94.8,54.592 Z M94.8,55.712 C93.9039955,55.712 93.2426688,56.0853296 92.816,56.832 C92.3893312,57.5786704 92.176,58.751992 92.176,60.352 C92.176,61.952008 92.3893312,63.1306629 92.816,63.888 C93.2426688,64.6453371 93.9039955,65.024 94.8,65.024 C95.6960045,65.024 96.3573312,64.6453371 96.784,63.888 C97.2106688,63.1306629 97.424,61.952008 97.424,60.352 C97.424,58.7413253 97.2133354,57.565337 96.792,56.824 C96.3706646,56.082663 95.7066712,55.712 94.8,55.712 Z" id="0" fill="#FFFFFF" fill-rule="nonzero"></path>
            <rect id="Rectangle-Copy-55" stroke="#FFFFFF" fill="#632EE4" x="0" y="80" width="40" height="40"></rect>
            <rect id="Rectangle-Copy-56" stroke="#FFFFFF" fill="#632EE4" x="40" y="80" width="40" height="40"></rect>
            <path d="M11.152,102.272 L11.152,101.2 L15.632,101.2 L15.632,102.272 L11.152,102.272 Z M22.672,104.896 L25.152,104.896 L25.152,106 L18.88,106 L18.88,104.896 L21.36,104.896 L21.36,96.352 L19.376,97.6 L18.768,96.592 L21.728,94.72 L22.672,94.72 L22.672,104.896 Z" id="-1" fill="#FFFFFF" fill-rule="nonzero"></path>
            <path d="M51.152,102.272 L51.152,101.2 L55.632,101.2 L55.632,102.272 L51.152,102.272 Z M62.672,104.896 L65.152,104.896 L65.152,106 L58.88,106 L58.88,104.896 L61.36,104.896 L61.36,96.352 L59.376,97.6 L58.768,96.592 L61.728,94.72 L62.672,94.72 L62.672,104.896 Z" id="-1" fill="#FFFFFF" fill-rule="nonzero"></path>
            <rect id="Rectangle-Copy-57" stroke="#FFFFFF" fill="#632EE4" x="80" y="80" width="40" height="40"></rect>
            <path d="M91.152,102.272 L91.152,101.2 L95.632,101.2 L95.632,102.272 L91.152,102.272 Z M102.672,104.896 L105.152,104.896 L105.152,106 L98.88,106 L98.88,104.896 L101.36,104.896 L101.36,96.352 L99.376,97.6 L98.768,96.592 L101.728,94.72 L102.672,94.72 L102.672,104.896 Z" id="-1" fill="#FFFFFF" fill-rule="nonzero"></path>
        </g>
        <path d="M117.392,36 L117.392,24.72 L124.528,24.72 L124.528,25.808 L118.688,25.808 L118.688,29.728 L124.208,29.728 L124.208,30.816 L118.688,30.816 L118.688,34.912 L124.528,34.912 L124.528,36 L117.392,36 Z M133.424,24.72 L133.424,36 L132.128,36 L132.128,34.576 C131.893332,35.0666691 131.549336,35.445332 131.096,35.712 C130.642664,35.978668 130.112003,36.112 129.504,36.112 C128.82133,36.112 128.218669,35.941335 127.696,35.6 C127.173331,35.258665 126.768001,34.7813364 126.48,34.168 C126.191999,33.5546636 126.048,32.8426707 126.048,32.032 C126.048,31.231996 126.191999,30.528003 126.48,29.92 C126.768001,29.311997 127.173331,28.8426683 127.696,28.512 C128.218669,28.1813317 128.82133,28.016 129.504,28.016 C130.112003,28.016 130.642664,28.149332 131.096,28.416 C131.549336,28.682668 131.893332,29.0613309 132.128,29.552 L132.128,24.72 L133.424,24.72 Z M129.76,35.04 C130.517337,35.04 131.101331,34.7813359 131.512,34.264 C131.922669,33.7466641 132.128,33.0133381 132.128,32.064 C132.128,31.1146619 131.922669,30.3840026 131.512,29.872 C131.101331,29.3599974 130.517337,29.104 129.76,29.104 C129.002663,29.104 128.413335,29.3599974 127.992,29.872 C127.570665,30.3840026 127.36,31.104 127.36,32.032 C127.36,32.9813381 127.570665,33.7199974 127.992,34.248 C128.413335,34.7760026 129.002663,35.04 129.76,35.04 Z M142.8,28.208 L142.8,35.472 C142.8,36.6346725 142.501336,37.511997 141.904,38.104 C141.306664,38.696003 140.421339,38.992 139.248,38.992 C137.88266,38.992 136.736005,38.6400035 135.808,37.936 L136.24,36.976 C136.762669,37.317335 137.253331,37.5626659 137.712,37.712 C138.170669,37.8613341 138.682664,37.936 139.248,37.936 C139.99467,37.936 140.559998,37.736002 140.944,37.336 C141.328002,36.935998 141.52,36.3520038 141.52,35.584 L141.52,34.208 C141.295999,34.7093358 140.952002,35.093332 140.488,35.36 C140.023998,35.626668 139.477336,35.76 138.848,35.76 C138.16533,35.76 137.560003,35.6000016 137.032,35.28 C136.503997,34.9599984 136.093335,34.5066696 135.8,33.92 C135.506665,33.3333304 135.36,32.6560038 135.36,31.888 C135.36,31.1199962 135.506665,30.4426696 135.8,29.856 C136.093335,29.2693304 136.503997,28.8160016 137.032,28.496 C137.560003,28.1759984 138.16533,28.016 138.848,28.016 C139.46667,28.016 140.005331,28.149332 140.464,28.416 C140.922669,28.682668 141.269332,29.0613309 141.504,29.552 L141.504,28.208 L142.8,28.208 Z M139.104,34.688 C139.85067,34.688 140.437331,34.4400025 140.864,33.944 C141.290669,33.4479975 141.504,32.762671 141.504,31.888 C141.504,31.0239957 141.293335,30.3440025 140.872,29.848 C140.450665,29.3519975 139.861337,29.104 139.104,29.104 C138.346663,29.104 137.752002,29.3519975 137.32,29.848 C136.887998,30.3440025 136.672,31.0239957 136.672,31.888 C136.672,32.762671 136.887998,33.4479975 137.32,33.944 C137.752002,34.4400025 138.346663,34.688 139.104,34.688 Z M151.728,32.304 L146.032,32.304 C146.074667,33.2106712 146.319998,33.8959977 146.768,34.36 C147.216002,34.8240023 147.850663,35.056 148.672,35.056 C149.578671,35.056 150.410663,34.7466698 151.168,34.128 L151.6,35.072 C151.258665,35.3920016 150.821336,35.6453324 150.288,35.832 C149.754664,36.0186676 149.210669,36.112 148.656,36.112 C147.439994,36.112 146.48267,35.7546702 145.784,35.04 C145.08533,34.3253298 144.736,33.338673 144.736,32.08 C144.736,31.279996 144.890665,30.5733364 145.2,29.96 C145.509335,29.3466636 145.943997,28.869335 146.504,28.528 C147.064003,28.186665 147.70133,28.016 148.416,28.016 C149.450672,28.016 150.26133,28.3546633 150.848,29.032 C151.43467,29.7093367 151.728,30.6399941 151.728,31.824 L151.728,32.304 Z M148.432,29.024 C147.74933,29.024 147.202669,29.2373312 146.792,29.664 C146.381331,30.0906688 146.138667,30.6933294 146.064,31.472 L150.592,31.472 C150.570667,30.6826627 150.373335,30.0773354 150,29.656 C149.626665,29.2346646 149.104003,29.024 148.432,29.024 Z M164.672,24.72 L164.672,36 L163.376,36 L163.376,34.576 C163.141332,35.0666691 162.797336,35.445332 162.344,35.712 C161.890664,35.978668 161.360003,36.112 160.752,36.112 C160.06933,36.112 159.466669,35.941335 158.944,35.6 C158.421331,35.258665 158.016001,34.7813364 157.728,34.168 C157.439999,33.5546636 157.296,32.8426707 157.296,32.032 C157.296,31.231996 157.439999,30.528003 157.728,29.92 C158.016001,29.311997 158.421331,28.8426683 158.944,28.512 C159.466669,28.1813317 160.06933,28.016 160.752,28.016 C161.360003,28.016 161.890664,28.149332 162.344,28.416 C162.797336,28.682668 163.141332,29.0613309 163.376,29.552 L163.376,24.72 L164.672,24.72 Z M161.008,35.04 C161.765337,35.04 162.349331,34.7813359 162.76,34.264 C163.170669,33.7466641 163.376,33.0133381 163.376,32.064 C163.376,31.1146619 163.170669,30.3840026 162.76,29.872 C162.349331,29.3599974 161.765337,29.104 161.008,29.104 C160.250663,29.104 159.661335,29.3599974 159.24,29.872 C158.818665,30.3840026 158.608,31.104 158.608,32.032 C158.608,32.9813381 158.818665,33.7199974 159.24,34.248 C159.661335,34.7760026 160.250663,35.04 161.008,35.04 Z M173.6,32.304 L167.904,32.304 C167.946667,33.2106712 168.191998,33.8959977 168.64,34.36 C169.088002,34.8240023 169.722663,35.056 170.544,35.056 C171.450671,35.056 172.282663,34.7466698 173.04,34.128 L173.472,35.072 C173.130665,35.3920016 172.693336,35.6453324 172.16,35.832 C171.626664,36.0186676 171.082669,36.112 170.528,36.112 C169.311994,36.112 168.35467,35.7546702 167.656,35.04 C166.95733,34.3253298 166.608,33.338673 166.608,32.08 C166.608,31.279996 166.762665,30.5733364 167.072,29.96 C167.381335,29.3466636 167.815997,28.869335 168.376,28.528 C168.936003,28.186665 169.57333,28.016 170.288,28.016 C171.322672,28.016 172.13333,28.3546633 172.72,29.032 C173.30667,29.7093367 173.6,30.6399941 173.6,31.824 L173.6,32.304 Z M170.304,29.024 C169.62133,29.024 169.074669,29.2373312 168.664,29.664 C168.253331,30.0906688 168.010667,30.6933294 167.936,31.472 L172.464,31.472 C172.442667,30.6826627 172.245335,30.0773354 171.872,29.656 C171.498665,29.2346646 170.976003,29.024 170.304,29.024 Z M178.928,35.072 C179.162668,35.072 179.397332,35.0560002 179.632,35.024 L179.568,36.048 C179.322665,36.0906669 179.056001,36.112 178.768,36.112 C177.829329,36.112 177.122669,35.8666691 176.648,35.376 C176.173331,34.8853309 175.936,34.202671 175.936,33.328 L175.936,29.232 L174.416,29.232 L174.416,28.208 L175.936,28.208 L175.936,25.84 L177.232,25.84 L177.232,28.208 L179.44,28.208 L179.44,29.232 L177.232,29.232 L177.232,33.232 C177.232,34.4586728 177.797328,35.072 178.928,35.072 Z M187.472,32.304 L181.776,32.304 C181.818667,33.2106712 182.063998,33.8959977 182.512,34.36 C182.960002,34.8240023 183.594663,35.056 184.416,35.056 C185.322671,35.056 186.154663,34.7466698 186.912,34.128 L187.344,35.072 C187.002665,35.3920016 186.565336,35.6453324 186.032,35.832 C185.498664,36.0186676 184.954669,36.112 184.4,36.112 C183.183994,36.112 182.22667,35.7546702 181.528,35.04 C180.82933,34.3253298 180.48,33.338673 180.48,32.08 C180.48,31.279996 180.634665,30.5733364 180.944,29.96 C181.253335,29.3466636 181.687997,28.869335 182.248,28.528 C182.808003,28.186665 183.44533,28.016 184.16,28.016 C185.194672,28.016 186.00533,28.3546633 186.592,29.032 C187.17867,29.7093367 187.472,30.6399941 187.472,31.824 L187.472,32.304 Z M184.176,29.024 C183.49333,29.024 182.946669,29.2373312 182.536,29.664 C182.125331,30.0906688 181.882667,30.6933294 181.808,31.472 L186.336,31.472 C186.314667,30.6826627 186.117335,30.0773354 185.744,29.656 C185.370665,29.2346646 184.848003,29.024 184.176,29.024 Z M192.672,36.112 C191.903996,36.112 191.237336,35.9466683 190.672,35.616 C190.106664,35.2853317 189.672002,34.8186697 189.368,34.216 C189.063998,33.6133303 188.912,32.9066707 188.912,32.096 C188.912,31.2853293 189.069332,30.5733364 189.384,29.96 C189.698668,29.3466636 190.14133,28.869335 190.712,28.528 C191.28267,28.186665 191.951996,28.016 192.72,28.016 C193.242669,28.016 193.754664,28.1093324 194.256,28.296 C194.757336,28.4826676 195.162665,28.7306651 195.472,29.04 L195.04,30 C194.303996,29.4026637 193.557337,29.104 192.8,29.104 C191.999996,29.104 191.376002,29.3653307 190.928,29.888 C190.479998,30.4106693 190.256,31.1466619 190.256,32.096 C190.256,33.0346714 190.479998,33.7599974 190.928,34.272 C191.376002,34.7840026 191.999996,35.04 192.8,35.04 C193.557337,35.04 194.303996,34.7413363 195.04,34.144 L195.472,35.104 C195.141332,35.4133349 194.725336,35.6586658 194.224,35.84 C193.722664,36.0213342 193.205336,36.112 192.672,36.112 Z M200.464,35.072 C200.698668,35.072 200.933332,35.0560002 201.168,35.024 L201.104,36.048 C200.858665,36.0906669 200.592001,36.112 200.304,36.112 C199.365329,36.112 198.658669,35.8666691 198.184,35.376 C197.709331,34.8853309 197.472,34.202671 197.472,33.328 L197.472,29.232 L195.952,29.232 L195.952,28.208 L197.472,28.208 L197.472,25.84 L198.768,25.84 L198.768,28.208 L200.976,28.208 L200.976,29.232 L198.768,29.232 L198.768,33.232 C198.768,34.4586728 199.333328,35.072 200.464,35.072 Z M205.712,36.112 C204.975996,36.112 204.328003,35.9466683 203.768,35.616 C203.207997,35.2853317 202.776002,34.8133364 202.472,34.2 C202.167998,33.5866636 202.016,32.8746707 202.016,32.064 C202.016,31.2533293 202.167998,30.5413364 202.472,29.928 C202.776002,29.3146636 203.207997,28.8426683 203.768,28.512 C204.328003,28.1813317 204.975996,28.016 205.712,28.016 C206.448004,28.016 207.098664,28.1813317 207.664,28.512 C208.229336,28.8426683 208.663998,29.3146636 208.968,29.928 C209.272002,30.5413364 209.424,31.2533293 209.424,32.064 C209.424,32.8746707 209.272002,33.5866636 208.968,34.2 C208.663998,34.8133364 208.229336,35.2853317 207.664,35.616 C207.098664,35.9466683 206.448004,36.112 205.712,36.112 Z M205.712,35.04 C206.480004,35.04 207.069331,34.7866692 207.48,34.28 C207.890669,33.7733308 208.096,33.0346715 208.096,32.064 C208.096,31.1146619 207.888002,30.3813359 207.472,29.864 C207.055998,29.3466641 206.469337,29.088 205.712,29.088 C204.954663,29.088 204.368002,29.3466641 203.952,29.864 C203.535998,30.3813359 203.328,31.1146619 203.328,32.064 C203.328,33.0240048 203.533331,33.7599974 203.944,34.272 C204.354669,34.7840026 204.943996,35.04 205.712,35.04 Z M215.776,29.136 L214.928,29.216 C214.127996,29.290667 213.549335,29.5413312 213.192,29.968 C212.834665,30.3946688 212.656,30.9226635 212.656,31.552 L212.656,36 L211.36,36 L211.36,28.208 L212.624,28.208 L212.624,29.568 C213.061336,28.6613288 213.919994,28.1546672 215.2,28.048 L215.664,28.016 L215.776,29.136 Z M222.864,28.208 L227.664,28.208 L227.664,36 L226.368,36 L226.368,29.232 L222.864,29.232 L222.864,36 L221.568,36 L221.568,29.232 L220.048,29.232 L220.048,28.208 L221.568,28.208 L221.568,27.952 C221.568,26.9066614 221.829331,26.117336 222.352,25.584 C222.874669,25.050664 223.674661,24.7573336 224.752,24.704 L225.344,24.672 L225.424,25.68 L224.688,25.728 C224.048,25.7706669 223.584001,25.9573317 223.296,26.288 C223.007999,26.6186683 222.864,27.1146634 222.864,27.776 L222.864,28.208 Z M226.224,24.816 L227.824,24.816 L227.824,26.304 L226.224,26.304 L226.224,24.816 Z M230.08,36 L230.08,24.72 L231.376,24.72 L231.376,36 L230.08,36 Z M237.216,35.072 C237.450668,35.072 237.685332,35.0560002 237.92,35.024 L237.856,36.048 C237.610665,36.0906669 237.344001,36.112 237.056,36.112 C236.117329,36.112 235.410669,35.8666691 234.936,35.376 C234.461331,34.8853309 234.224,34.202671 234.224,33.328 L234.224,29.232 L232.704,29.232 L232.704,28.208 L234.224,28.208 L234.224,25.84 L235.52,25.84 L235.52,28.208 L237.728,28.208 L237.728,29.232 L235.52,29.232 L235.52,33.232 C235.52,34.4586728 236.085328,35.072 237.216,35.072 Z M245.76,32.304 L240.064,32.304 C240.106667,33.2106712 240.351998,33.8959977 240.8,34.36 C241.248002,34.8240023 241.882663,35.056 242.704,35.056 C243.610671,35.056 244.442663,34.7466698 245.2,34.128 L245.632,35.072 C245.290665,35.3920016 244.853336,35.6453324 244.32,35.832 C243.786664,36.0186676 243.242669,36.112 242.688,36.112 C241.471994,36.112 240.51467,35.7546702 239.816,35.04 C239.11733,34.3253298 238.768,33.338673 238.768,32.08 C238.768,31.279996 238.922665,30.5733364 239.232,29.96 C239.541335,29.3466636 239.975997,28.869335 240.536,28.528 C241.096003,28.186665 241.73333,28.016 242.448,28.016 C243.482672,28.016 244.29333,28.3546633 244.88,29.032 C245.46667,29.7093367 245.76,30.6399941 245.76,31.824 L245.76,32.304 Z M242.464,29.024 C241.78133,29.024 241.234669,29.2373312 240.824,29.664 C240.413331,30.0906688 240.170667,30.6933294 240.096,31.472 L244.624,31.472 C244.602667,30.6826627 244.405335,30.0773354 244.032,29.656 C243.658665,29.2346646 243.136003,29.024 242.464,29.024 Z M252.08,29.136 L251.232,29.216 C250.431996,29.290667 249.853335,29.5413312 249.496,29.968 C249.138665,30.3946688 248.96,30.9226635 248.96,31.552 L248.96,36 L247.664,36 L247.664,28.208 L248.928,28.208 L248.928,29.568 C249.365336,28.6613288 250.223994,28.1546672 251.504,28.048 L251.968,28.016 L252.08,29.136 Z M255.952,36.112 C254.639993,36.112 253.600004,35.7760034 252.832,35.104 L253.264,34.144 C253.680002,34.4746683 254.103998,34.7119993 254.536,34.856 C254.968002,35.0000007 255.455997,35.072 256,35.072 C256.576003,35.072 257.015998,34.9733343 257.32,34.776 C257.624002,34.5786657 257.776,34.2933352 257.776,33.92 C257.776,33.6106651 257.674668,33.3653342 257.472,33.184 C257.269332,33.0026658 256.933336,32.8586672 256.464,32.752 L255.152,32.448 C254.490663,32.2986659 253.984002,32.0426685 253.632,31.68 C253.279998,31.3173315 253.104,30.869336 253.104,30.336 C253.104,29.6426632 253.375997,29.0826688 253.92,28.656 C254.464003,28.2293312 255.189329,28.016 256.096,28.016 C256.640003,28.016 257.157331,28.1039991 257.648,28.28 C258.138669,28.4560009 258.549332,28.7093317 258.88,29.04 L258.448,29.984 C257.73333,29.375997 256.949338,29.072 256.096,29.072 C255.551997,29.072 255.128002,29.175999 254.824,29.384 C254.519998,29.592001 254.368,29.8826648 254.368,30.256 C254.368,30.5653349 254.461332,30.8133324 254.648,31 C254.834668,31.1866676 255.135998,31.3279995 255.552,31.424 L256.88,31.744 C257.605337,31.9146675 258.143998,32.1733316 258.496,32.52 C258.848002,32.8666684 259.024,33.3173306 259.024,33.872 C259.024,34.5546701 258.749336,35.0986646 258.2,35.504 C257.650664,35.9093354 256.901338,36.112 255.952,36.112 Z" id="Edgedetectorflters" fill="#0F1931" fill-rule="nonzero"></path>
        <path d="M39.695,200.13 L40.871,200.13 L36.559,210 L35.565,210 L31.253,200.13 L32.457,200.13 L36.069,208.558 L39.695,200.13 Z M47.661,206.766 L42.677,206.766 C42.7143335,207.559337 42.928998,208.158998 43.321,208.565 C43.713002,208.971002 44.2683297,209.174 44.987,209.174 C45.7803373,209.174 46.50833,208.903336 47.171,208.362 L47.549,209.188 C47.2503318,209.468001 46.867669,209.689666 46.401,209.853 C45.934331,210.016334 45.4583358,210.098 44.973,210.098 C43.9089947,210.098 43.0713364,209.785336 42.46,209.16 C41.8486636,208.534664 41.543,207.671339 41.543,206.57 C41.543,205.869997 41.678332,205.251669 41.949,204.715 C42.219668,204.178331 42.5999975,203.760668 43.09,203.462 C43.5800024,203.163332 44.1376635,203.014 44.763,203.014 C45.6683379,203.014 46.3776641,203.31033 46.891,203.903 C47.4043359,204.49567 47.661,205.309995 47.661,206.346 L47.661,206.766 Z M44.777,203.896 C44.1796637,203.896 43.7013351,204.082665 43.342,204.456 C42.9826649,204.829335 42.7703337,205.356663 42.705,206.038 L46.667,206.038 C46.6483332,205.34733 46.4756683,204.817669 46.149,204.449 C45.8223317,204.080331 45.3650029,203.896 44.777,203.896 Z M53.191,203.994 L52.449,204.064 C51.7489965,204.129334 51.2426682,204.348665 50.93,204.722 C50.6173318,205.095335 50.461,205.557331 50.461,206.108 L50.461,210 L49.327,210 L49.327,203.182 L50.433,203.182 L50.433,204.372 C50.8156686,203.578663 51.5669944,203.135334 52.687,203.042 L53.093,203.014 L53.191,203.994 Z M57.265,209.188 C57.4703344,209.188 57.6756656,209.174 57.881,209.146 L57.825,210.042 C57.6103323,210.079334 57.3770013,210.098 57.125,210.098 C56.3036626,210.098 55.6853354,209.883335 55.27,209.454 C54.8546646,209.024665 54.647,208.427337 54.647,207.662 L54.647,204.078 L53.317,204.078 L53.317,203.182 L54.647,203.182 L54.647,201.11 L55.781,201.11 L55.781,203.182 L57.713,203.182 L57.713,204.078 L55.781,204.078 L55.781,207.578 C55.781,208.651339 56.2756617,209.188 57.265,209.188 Z M59.029,210 L59.029,203.182 L60.163,203.182 L60.163,210 L59.029,210 Z M58.917,200.228 L60.289,200.228 L60.289,201.502 L58.917,201.502 L58.917,200.228 Z M65.161,210.098 C64.4889966,210.098 63.9056691,209.953335 63.411,209.664 C62.9163309,209.374665 62.5360013,208.966336 62.27,208.439 C62.0039987,207.911664 61.871,207.293337 61.871,206.584 C61.871,205.874663 62.0086653,205.251669 62.284,204.715 C62.5593347,204.178331 62.9466642,203.760668 63.446,203.462 C63.9453358,203.163332 64.5309966,203.014 65.203,203.014 C65.6603356,203.014 66.1083311,203.095666 66.547,203.259 C66.9856689,203.422334 67.340332,203.639332 67.611,203.91 L67.233,204.75 C66.5889968,204.227331 65.93567,203.966 65.273,203.966 C64.5729965,203.966 64.027002,204.194664 63.635,204.652 C63.242998,205.109336 63.047,205.753329 63.047,206.584 C63.047,207.405337 63.242998,208.039998 63.635,208.488 C64.027002,208.936002 64.5729965,209.16 65.273,209.16 C65.93567,209.16 66.5889968,208.898669 67.233,208.376 L67.611,209.216 C67.3216652,209.486668 66.9576689,209.701333 66.519,209.86 C66.0803311,210.018667 65.627669,210.098 65.161,210.098 Z M71.755,203.014 C72.6230043,203.014 73.2693312,203.235664 73.694,203.679 C74.1186688,204.122336 74.331,204.796662 74.331,205.702 L74.331,210 L73.225,210 L73.225,208.838 C73.0476658,209.239335 72.7770018,209.549666 72.413,209.769 C72.0489982,209.988334 71.6290024,210.098 71.153,210.098 C70.7143311,210.098 70.3106685,210.009334 69.942,209.832 C69.5733315,209.654666 69.2816677,209.407335 69.067,209.09 C68.8523323,208.772665 68.745,208.422669 68.745,208.04 C68.745,207.526664 68.8756654,207.127668 69.137,206.843 C69.3983346,206.558332 69.8276637,206.353001 70.425,206.227 C70.9559656,206.114999 71.6712845,206.052778 72.570974,206.040333 L73.225,206.038 L73.225,205.576 C73.225,205.006664 73.1083345,204.593668 72.875,204.337 C72.6416655,204.080332 72.2636693,203.952 71.741,203.952 C70.9569961,203.952 70.1776705,204.194664 69.403,204.68 L69.025,203.854 C69.3796684,203.601999 69.8066642,203.399001 70.306,203.245 C70.8053358,203.090999 71.288331,203.014 71.755,203.014 Z M71.307,209.202 C71.8670028,209.202 72.3266649,209.013002 72.686,208.635 C73.0453351,208.256998 73.225,207.769336 73.225,207.172 L73.225,206.766 L72.973,206.766 C72.1516626,206.766 71.5263355,206.801 71.097,206.871 C70.6676645,206.941 70.3620009,207.057666 70.18,207.221 C69.9979991,207.384334 69.907,207.624665 69.907,207.942 C69.907,208.306002 70.0399987,208.606999 70.306,208.845 C70.5720013,209.083001 70.9056647,209.202 71.307,209.202 Z M76.403,210 L76.403,200.13 L77.537,200.13 L77.537,210 L76.403,210 Z M88.975,206.766 L83.991,206.766 C84.0283335,207.559337 84.242998,208.158998 84.635,208.565 C85.027002,208.971002 85.5823297,209.174 86.301,209.174 C87.0943373,209.174 87.82233,208.903336 88.485,208.362 L88.863,209.188 C88.5643318,209.468001 88.181669,209.689666 87.715,209.853 C87.248331,210.016334 86.7723358,210.098 86.287,210.098 C85.2229947,210.098 84.3853364,209.785336 83.774,209.16 C83.1626636,208.534664 82.857,207.671339 82.857,206.57 C82.857,205.869997 82.992332,205.251669 83.263,204.715 C83.533668,204.178331 83.9139975,203.760668 84.404,203.462 C84.8940025,203.163332 85.4516635,203.014 86.077,203.014 C86.9823379,203.014 87.6916641,203.31033 88.205,203.903 C88.7183359,204.49567 88.975,205.309995 88.975,206.346 L88.975,206.766 Z M86.091,203.896 C85.4936637,203.896 85.0153351,204.082665 84.656,204.456 C84.2966649,204.829335 84.0843337,205.356663 84.019,206.038 L87.981,206.038 C87.9623332,205.34733 87.7896683,204.817669 87.463,204.449 C87.1363317,204.080331 86.6790029,203.896 86.091,203.896 Z M96.689,200.13 L96.689,210 L95.555,210 L95.555,208.754 C95.3496656,209.183335 95.0486686,209.514666 94.652,209.748 C94.2553314,209.981335 93.7910027,210.098 93.259,210.098 C92.6616637,210.098 92.1343356,209.948668 91.677,209.65 C91.2196644,209.351332 90.8650013,208.933669 90.613,208.397 C90.3609987,207.860331 90.235,207.237337 90.235,206.528 C90.235,205.827997 90.3609987,205.212003 90.613,204.68 C90.8650013,204.147997 91.2196644,203.737335 91.677,203.448 C92.1343356,203.158665 92.6616637,203.014 93.259,203.014 C93.7910027,203.014 94.2553314,203.130665 94.652,203.364 C95.0486686,203.597334 95.3496656,203.928665 95.555,204.358 L95.555,200.13 L96.689,200.13 Z M93.483,209.16 C94.14567,209.16 94.6566649,208.933669 95.016,208.481 C95.3753351,208.028331 95.555,207.386671 95.555,206.556 C95.555,205.725329 95.3753351,205.086002 95.016,204.638 C94.6566649,204.189998 94.14567,203.966 93.483,203.966 C92.82033,203.966 92.3046685,204.189998 91.936,204.638 C91.5673315,205.086002 91.383,205.715996 91.383,206.528 C91.383,207.358671 91.5673315,208.004998 91.936,208.467 C92.3046685,208.929002 92.82033,209.16 93.483,209.16 Z M104.893,203.182 L104.893,209.538 C104.893,210.555338 104.631669,211.322997 104.109,211.841 C103.586331,212.359003 102.811672,212.618 101.785,212.618 C100.590327,212.618 99.5870041,212.310003 98.775,211.694 L99.153,210.854 C99.6103356,211.152668 100.039665,211.367333 100.441,211.498 C100.842335,211.628667 101.290331,211.694 101.785,211.694 C102.438337,211.694 102.932998,211.519002 103.269,211.169 C103.605002,210.818998 103.773,210.308003 103.773,209.636 L103.773,208.432 C103.576999,208.870669 103.276002,209.206665 102.87,209.44 C102.463998,209.673335 101.985669,209.79 101.435,209.79 C100.837664,209.79 100.308002,209.650001 99.846,209.37 C99.3839977,209.089999 99.0246679,208.693336 98.768,208.18 C98.511332,207.666664 98.383,207.074003 98.383,206.402 C98.383,205.729997 98.511332,205.137336 98.768,204.624 C99.0246679,204.110664 99.3839977,203.714001 99.846,203.434 C100.308002,203.153999 100.837664,203.014 101.435,203.014 C101.976336,203.014 102.447665,203.130665 102.849,203.364 C103.250335,203.597334 103.553666,203.928665 103.759,204.358 L103.759,203.182 L104.893,203.182 Z M101.659,208.852 C102.312337,208.852 102.825665,208.635002 103.199,208.201 C103.572335,207.766998 103.759,207.167337 103.759,206.402 C103.759,205.645996 103.574669,205.051002 103.206,204.617 C102.837331,204.182998 102.32167,203.966 101.659,203.966 C100.99633,203.966 100.476002,204.182998 100.098,204.617 C99.7199981,205.051002 99.531,205.645996 99.531,206.402 C99.531,207.167337 99.7199981,207.766998 100.098,208.201 C100.476002,208.635002 100.99633,208.852 101.659,208.852 Z M112.705,206.766 L107.721,206.766 C107.758334,207.559337 107.972998,208.158998 108.365,208.565 C108.757002,208.971002 109.31233,209.174 110.031,209.174 C110.824337,209.174 111.55233,208.903336 112.215,208.362 L112.593,209.188 C112.294332,209.468001 111.911669,209.689666 111.445,209.853 C110.978331,210.016334 110.502336,210.098 110.017,210.098 C108.952995,210.098 108.115336,209.785336 107.504,209.16 C106.892664,208.534664 106.587,207.671339 106.587,206.57 C106.587,205.869997 106.722332,205.251669 106.993,204.715 C107.263668,204.178331 107.643998,203.760668 108.134,203.462 C108.624002,203.163332 109.181664,203.014 109.807,203.014 C110.712338,203.014 111.421664,203.31033 111.935,203.903 C112.448336,204.49567 112.705,205.309995 112.705,206.346 L112.705,206.766 Z M109.821,203.896 C109.223664,203.896 108.745335,204.082665 108.386,204.456 C108.026665,204.829335 107.814334,205.356663 107.749,206.038 L111.711,206.038 C111.692333,205.34733 111.519668,204.817669 111.193,204.449 C110.866332,204.080331 110.409003,203.896 109.821,203.896 Z M124.031,200.13 L124.031,210 L122.897,210 L122.897,208.754 C122.691666,209.183335 122.390669,209.514666 121.994,209.748 C121.597331,209.981335 121.133003,210.098 120.601,210.098 C120.003664,210.098 119.476336,209.948668 119.019,209.65 C118.561664,209.351332 118.207001,208.933669 117.955,208.397 C117.702999,207.860331 117.577,207.237337 117.577,206.528 C117.577,205.827997 117.702999,205.212003 117.955,204.68 C118.207001,204.147997 118.561664,203.737335 119.019,203.448 C119.476336,203.158665 120.003664,203.014 120.601,203.014 C121.133003,203.014 121.597331,203.130665 121.994,203.364 C122.390669,203.597334 122.691666,203.928665 122.897,204.358 L122.897,200.13 L124.031,200.13 Z M120.825,209.16 C121.48767,209.16 121.998665,208.933669 122.358,208.481 C122.717335,208.028331 122.897,207.386671 122.897,206.556 C122.897,205.725329 122.717335,205.086002 122.358,204.638 C121.998665,204.189998 121.48767,203.966 120.825,203.966 C120.16233,203.966 119.646669,204.189998 119.278,204.638 C118.909331,205.086002 118.725,205.715996 118.725,206.528 C118.725,207.358671 118.909331,208.004998 119.278,208.467 C119.646669,208.929002 120.16233,209.16 120.825,209.16 Z M131.843,206.766 L126.859,206.766 C126.896334,207.559337 127.110998,208.158998 127.503,208.565 C127.895002,208.971002 128.45033,209.174 129.169,209.174 C129.962337,209.174 130.69033,208.903336 131.353,208.362 L131.731,209.188 C131.432332,209.468001 131.049669,209.689666 130.583,209.853 C130.116331,210.016334 129.640336,210.098 129.155,210.098 C128.090995,210.098 127.253336,209.785336 126.642,209.16 C126.030664,208.534664 125.725,207.671339 125.725,206.57 C125.725,205.869997 125.860332,205.251669 126.131,204.715 C126.401668,204.178331 126.781998,203.760668 127.272,203.462 C127.762002,203.163332 128.319664,203.014 128.945,203.014 C129.850338,203.014 130.559664,203.31033 131.073,203.903 C131.586336,204.49567 131.843,205.309995 131.843,206.346 L131.843,206.766 Z M128.959,203.896 C128.361664,203.896 127.883335,204.082665 127.524,204.456 C127.164665,204.829335 126.952334,205.356663 126.887,206.038 L130.849,206.038 C130.830333,205.34733 130.657668,204.817669 130.331,204.449 C130.004332,204.080331 129.547003,203.896 128.959,203.896 Z M136.505,209.188 C136.710334,209.188 136.915666,209.174 137.121,209.146 L137.065,210.042 C136.850332,210.079334 136.617001,210.098 136.365,210.098 C135.543663,210.098 134.925335,209.883335 134.51,209.454 C134.094665,209.024665 133.887,208.427337 133.887,207.662 L133.887,204.078 L132.557,204.078 L132.557,203.182 L133.887,203.182 L133.887,201.11 L135.021,201.11 L135.021,203.182 L136.953,203.182 L136.953,204.078 L135.021,204.078 L135.021,207.578 C135.021,208.651339 135.515662,209.188 136.505,209.188 Z M143.981,206.766 L138.997,206.766 C139.034334,207.559337 139.248998,208.158998 139.641,208.565 C140.033002,208.971002 140.58833,209.174 141.307,209.174 C142.100337,209.174 142.82833,208.903336 143.491,208.362 L143.869,209.188 C143.570332,209.468001 143.187669,209.689666 142.721,209.853 C142.254331,210.016334 141.778336,210.098 141.293,210.098 C140.228995,210.098 139.391336,209.785336 138.78,209.16 C138.168664,208.534664 137.863,207.671339 137.863,206.57 C137.863,205.869997 137.998332,205.251669 138.269,204.715 C138.539668,204.178331 138.919998,203.760668 139.41,203.462 C139.900002,203.163332 140.457664,203.014 141.083,203.014 C141.988338,203.014 142.697664,203.31033 143.211,203.903 C143.724336,204.49567 143.981,205.309995 143.981,206.346 L143.981,206.766 Z M141.097,203.896 C140.499664,203.896 140.021335,204.082665 139.662,204.456 C139.302665,204.829335 139.090334,205.356663 139.025,206.038 L142.987,206.038 C142.968333,205.34733 142.795668,204.817669 142.469,204.449 C142.142332,204.080331 141.685003,203.896 141.097,203.896 Z M148.531,210.098 C147.858997,210.098 147.275669,209.953335 146.781,209.664 C146.286331,209.374665 145.906001,208.966336 145.64,208.439 C145.373999,207.911664 145.241,207.293337 145.241,206.584 C145.241,205.874663 145.378665,205.251669 145.654,204.715 C145.929335,204.178331 146.316664,203.760668 146.816,203.462 C147.315336,203.163332 147.900997,203.014 148.573,203.014 C149.030336,203.014 149.478331,203.095666 149.917,203.259 C150.355669,203.422334 150.710332,203.639332 150.981,203.91 L150.603,204.75 C149.958997,204.227331 149.30567,203.966 148.643,203.966 C147.942996,203.966 147.397002,204.194664 147.005,204.652 C146.612998,205.109336 146.417,205.753329 146.417,206.584 C146.417,207.405337 146.612998,208.039998 147.005,208.488 C147.397002,208.936002 147.942996,209.16 148.643,209.16 C149.30567,209.16 149.958997,208.898669 150.603,208.376 L150.981,209.216 C150.691665,209.486668 150.327669,209.701333 149.889,209.86 C149.450331,210.018667 148.997669,210.098 148.531,210.098 Z M155.349,209.188 C155.554334,209.188 155.759666,209.174 155.965,209.146 L155.909,210.042 C155.694332,210.079334 155.461001,210.098 155.209,210.098 C154.387663,210.098 153.769335,209.883335 153.354,209.454 C152.938665,209.024665 152.731,208.427337 152.731,207.662 L152.731,204.078 L151.401,204.078 L151.401,203.182 L152.731,203.182 L152.731,201.11 L153.865,201.11 L153.865,203.182 L155.797,203.182 L155.797,204.078 L153.865,204.078 L153.865,207.578 C153.865,208.651339 154.359662,209.188 155.349,209.188 Z M159.941,210.098 C159.296997,210.098 158.730002,209.953335 158.24,209.664 C157.749998,209.374665 157.372001,208.961669 157.106,208.425 C156.839999,207.888331 156.707,207.265337 156.707,206.556 C156.707,205.846663 156.839999,205.223669 157.106,204.687 C157.372001,204.150331 157.749998,203.737335 158.24,203.448 C158.730002,203.158665 159.296997,203.014 159.941,203.014 C160.585003,203.014 161.154331,203.158665 161.649,203.448 C162.143669,203.737335 162.523999,204.150331 162.79,204.687 C163.056001,205.223669 163.189,205.846663 163.189,206.556 C163.189,207.265337 163.056001,207.888331 162.79,208.425 C162.523999,208.961669 162.143669,209.374665 161.649,209.664 C161.154331,209.953335 160.585003,210.098 159.941,210.098 Z M159.941,209.16 C160.613003,209.16 161.128665,208.938336 161.488,208.495 C161.847335,208.051664 162.027,207.405338 162.027,206.556 C162.027,205.725329 161.845002,205.083669 161.481,204.631 C161.116998,204.178331 160.60367,203.952 159.941,203.952 C159.27833,203.952 158.765002,204.178331 158.401,204.631 C158.036998,205.083669 157.855,205.725329 157.855,206.556 C157.855,207.396004 158.034665,208.039998 158.394,208.488 C158.753335,208.936002 159.268997,209.16 159.941,209.16 Z M168.747,203.994 L168.005,204.064 C167.304996,204.129334 166.798668,204.348665 166.486,204.722 C166.173332,205.095335 166.017,205.557331 166.017,206.108 L166.017,210 L164.883,210 L164.883,203.182 L165.989,203.182 L165.989,204.372 C166.371669,203.578663 167.122994,203.135334 168.243,203.042 L168.649,203.014 L168.747,203.994 Z" id="Verticaledgedetector" fill="#0F1931" fill-rule="nonzero"></path>
        <path d="M206.791,200.13 L207.925,200.13 L207.925,210 L206.791,210 L206.791,205.478 L200.883,205.478 L200.883,210 L199.749,210 L199.749,200.13 L200.883,200.13 L200.883,204.498 L206.791,204.498 L206.791,200.13 Z M213.021,210.098 C212.376997,210.098 211.810002,209.953335 211.32,209.664 C210.829998,209.374665 210.452001,208.961669 210.186,208.425 C209.919999,207.888331 209.787,207.265337 209.787,206.556 C209.787,205.846663 209.919999,205.223669 210.186,204.687 C210.452001,204.150331 210.829998,203.737335 211.32,203.448 C211.810002,203.158665 212.376997,203.014 213.021,203.014 C213.665003,203.014 214.234331,203.158665 214.729,203.448 C215.223669,203.737335 215.603999,204.150331 215.87,204.687 C216.136001,205.223669 216.269,205.846663 216.269,206.556 C216.269,207.265337 216.136001,207.888331 215.87,208.425 C215.603999,208.961669 215.223669,209.374665 214.729,209.664 C214.234331,209.953335 213.665003,210.098 213.021,210.098 Z M213.021,209.16 C213.693003,209.16 214.208665,208.938336 214.568,208.495 C214.927335,208.051664 215.107,207.405338 215.107,206.556 C215.107,205.725329 214.925002,205.083669 214.561,204.631 C214.196998,204.178331 213.68367,203.952 213.021,203.952 C212.35833,203.952 211.845002,204.178331 211.481,204.631 C211.116998,205.083669 210.935,205.725329 210.935,206.556 C210.935,207.396004 211.114665,208.039998 211.474,208.488 C211.833335,208.936002 212.348997,209.16 213.021,209.16 Z M221.827,203.994 L221.085,204.064 C220.384996,204.129334 219.878668,204.348665 219.566,204.722 C219.253332,205.095335 219.097,205.557331 219.097,206.108 L219.097,210 L217.963,210 L217.963,203.182 L219.069,203.182 L219.069,204.372 C219.451669,203.578663 220.202994,203.135334 221.323,203.042 L221.729,203.014 L221.827,203.994 Z M222.905,210 L222.905,203.182 L224.039,203.182 L224.039,210 L222.905,210 Z M222.793,200.228 L224.165,200.228 L224.165,201.502 L222.793,201.502 L222.793,200.228 Z M227.175,209.104 L231.557,209.104 L231.557,210 L225.775,210 L225.775,209.216 L230.031,204.078 L225.915,204.078 L225.915,203.182 L231.403,203.182 L231.403,204.008 L227.175,209.104 Z M236.023,210.098 C235.378997,210.098 234.812002,209.953335 234.322,209.664 C233.831998,209.374665 233.454001,208.961669 233.188,208.425 C232.921999,207.888331 232.789,207.265337 232.789,206.556 C232.789,205.846663 232.921999,205.223669 233.188,204.687 C233.454001,204.150331 233.831998,203.737335 234.322,203.448 C234.812002,203.158665 235.378997,203.014 236.023,203.014 C236.667003,203.014 237.236331,203.158665 237.731,203.448 C238.225669,203.737335 238.605999,204.150331 238.872,204.687 C239.138001,205.223669 239.271,205.846663 239.271,206.556 C239.271,207.265337 239.138001,207.888331 238.872,208.425 C238.605999,208.961669 238.225669,209.374665 237.731,209.664 C237.236331,209.953335 236.667003,210.098 236.023,210.098 Z M236.023,209.16 C236.695003,209.16 237.210665,208.938336 237.57,208.495 C237.929335,208.051664 238.109,207.405338 238.109,206.556 C238.109,205.725329 237.927002,205.083669 237.563,204.631 C237.198998,204.178331 236.68567,203.952 236.023,203.952 C235.36033,203.952 234.847002,204.178331 234.483,204.631 C234.118998,205.083669 233.937,205.725329 233.937,206.556 C233.937,207.396004 234.116665,208.039998 234.476,208.488 C234.835335,208.936002 235.350997,209.16 236.023,209.16 Z M244.395,203.014 C246.028342,203.014 246.845,203.914658 246.845,205.716 L246.845,210 L245.711,210 L245.711,205.786 C245.711,205.15133 245.587335,204.689335 245.34,204.4 C245.092665,204.110665 244.698336,203.966 244.157,203.966 C243.531664,203.966 243.032335,204.157331 242.659,204.54 C242.285665,204.922669 242.099,205.440663 242.099,206.094 L242.099,210 L240.965,210 L240.965,203.182 L242.085,203.182 L242.085,204.302 C242.309001,203.881998 242.621665,203.562334 243.023,203.343 C243.424335,203.123666 243.881664,203.014 244.395,203.014 Z M251.913,209.188 C252.118334,209.188 252.323666,209.174 252.529,209.146 L252.473,210.042 C252.258332,210.079334 252.025001,210.098 251.773,210.098 C250.951663,210.098 250.333335,209.883335 249.918,209.454 C249.502665,209.024665 249.295,208.427337 249.295,207.662 L249.295,204.078 L247.965,204.078 L247.965,203.182 L249.295,203.182 L249.295,201.11 L250.429,201.11 L250.429,203.182 L252.361,203.182 L252.361,204.078 L250.429,204.078 L250.429,207.578 C250.429,208.651339 250.923662,209.188 251.913,209.188 Z M256.449,203.014 C257.317004,203.014 257.963331,203.235664 258.388,203.679 C258.812669,204.122336 259.025,204.796662 259.025,205.702 L259.025,210 L257.919,210 L257.919,208.838 C257.741666,209.239335 257.471002,209.549666 257.107,209.769 C256.742998,209.988334 256.323002,210.098 255.847,210.098 C255.408331,210.098 255.004669,210.009334 254.636,209.832 C254.267331,209.654666 253.975668,209.407335 253.761,209.09 C253.546332,208.772665 253.439,208.422669 253.439,208.04 C253.439,207.526664 253.569665,207.127668 253.831,206.843 C254.092335,206.558332 254.521664,206.353001 255.119,206.227 C255.649966,206.114999 256.365284,206.052778 257.264974,206.040333 L257.919,206.038 L257.919,205.576 C257.919,205.006664 257.802335,204.593668 257.569,204.337 C257.335666,204.080332 256.957669,203.952 256.435,203.952 C255.650996,203.952 254.871671,204.194664 254.097,204.68 L253.719,203.854 C254.073668,203.601999 254.500664,203.399001 255,203.245 C255.499336,203.090999 255.982331,203.014 256.449,203.014 Z M256.001,209.202 C256.561003,209.202 257.020665,209.013002 257.38,208.635 C257.739335,208.256998 257.919,207.769336 257.919,207.172 L257.919,206.766 L257.667,206.766 C256.845663,206.766 256.220335,206.801 255.791,206.871 C255.361665,206.941 255.056001,207.057666 254.874,207.221 C254.691999,207.384334 254.601,207.624665 254.601,207.942 C254.601,208.306002 254.733999,208.606999 255,208.845 C255.266001,209.083001 255.599665,209.202 256.001,209.202 Z M261.097,210 L261.097,200.13 L262.231,200.13 L262.231,210 L261.097,210 Z M273.669,206.766 L268.685,206.766 C268.722334,207.559337 268.936998,208.158998 269.329,208.565 C269.721002,208.971002 270.27633,209.174 270.995,209.174 C271.788337,209.174 272.51633,208.903336 273.179,208.362 L273.557,209.188 C273.258332,209.468001 272.875669,209.689666 272.409,209.853 C271.942331,210.016334 271.466336,210.098 270.981,210.098 C269.916995,210.098 269.079336,209.785336 268.468,209.16 C267.856664,208.534664 267.551,207.671339 267.551,206.57 C267.551,205.869997 267.686332,205.251669 267.957,204.715 C268.227668,204.178331 268.607998,203.760668 269.098,203.462 C269.588002,203.163332 270.145664,203.014 270.771,203.014 C271.676338,203.014 272.385664,203.31033 272.899,203.903 C273.412336,204.49567 273.669,205.309995 273.669,206.346 L273.669,206.766 Z M270.785,203.896 C270.187664,203.896 269.709335,204.082665 269.35,204.456 C268.990665,204.829335 268.778334,205.356663 268.713,206.038 L272.675,206.038 C272.656333,205.34733 272.483668,204.817669 272.157,204.449 C271.830332,204.080331 271.373003,203.896 270.785,203.896 Z M281.383,200.13 L281.383,210 L280.249,210 L280.249,208.754 C280.043666,209.183335 279.742669,209.514666 279.346,209.748 C278.949331,209.981335 278.485003,210.098 277.953,210.098 C277.355664,210.098 276.828336,209.948668 276.371,209.65 C275.913664,209.351332 275.559001,208.933669 275.307,208.397 C275.054999,207.860331 274.929,207.237337 274.929,206.528 C274.929,205.827997 275.054999,205.212003 275.307,204.68 C275.559001,204.147997 275.913664,203.737335 276.371,203.448 C276.828336,203.158665 277.355664,203.014 277.953,203.014 C278.485003,203.014 278.949331,203.130665 279.346,203.364 C279.742669,203.597334 280.043666,203.928665 280.249,204.358 L280.249,200.13 L281.383,200.13 Z M278.177,209.16 C278.83967,209.16 279.350665,208.933669 279.71,208.481 C280.069335,208.028331 280.249,207.386671 280.249,206.556 C280.249,205.725329 280.069335,205.086002 279.71,204.638 C279.350665,204.189998 278.83967,203.966 278.177,203.966 C277.51433,203.966 276.998669,204.189998 276.63,204.638 C276.261331,205.086002 276.077,205.715996 276.077,206.528 C276.077,207.358671 276.261331,208.004998 276.63,208.467 C276.998669,208.929002 277.51433,209.16 278.177,209.16 Z M289.587,203.182 L289.587,209.538 C289.587,210.555338 289.325669,211.322997 288.803,211.841 C288.280331,212.359003 287.505672,212.618 286.479,212.618 C285.284327,212.618 284.281004,212.310003 283.469,211.694 L283.847,210.854 C284.304336,211.152668 284.733665,211.367333 285.135,211.498 C285.536335,211.628667 285.984331,211.694 286.479,211.694 C287.132337,211.694 287.626998,211.519002 287.963,211.169 C288.299002,210.818998 288.467,210.308003 288.467,209.636 L288.467,208.432 C288.270999,208.870669 287.970002,209.206665 287.564,209.44 C287.157998,209.673335 286.679669,209.79 286.129,209.79 C285.531664,209.79 285.002002,209.650001 284.54,209.37 C284.077998,209.089999 283.718668,208.693336 283.462,208.18 C283.205332,207.666664 283.077,207.074003 283.077,206.402 C283.077,205.729997 283.205332,205.137336 283.462,204.624 C283.718668,204.110664 284.077998,203.714001 284.54,203.434 C285.002002,203.153999 285.531664,203.014 286.129,203.014 C286.670336,203.014 287.141665,203.130665 287.543,203.364 C287.944335,203.597334 288.247666,203.928665 288.453,204.358 L288.453,203.182 L289.587,203.182 Z M286.353,208.852 C287.006337,208.852 287.519665,208.635002 287.893,208.201 C288.266335,207.766998 288.453,207.167337 288.453,206.402 C288.453,205.645996 288.268669,205.051002 287.9,204.617 C287.531331,204.182998 287.01567,203.966 286.353,203.966 C285.69033,203.966 285.170002,204.182998 284.792,204.617 C284.413998,205.051002 284.225,205.645996 284.225,206.402 C284.225,207.167337 284.413998,207.766998 284.792,208.201 C285.170002,208.635002 285.69033,208.852 286.353,208.852 Z M297.399,206.766 L292.415,206.766 C292.452334,207.559337 292.666998,208.158998 293.059,208.565 C293.451002,208.971002 294.00633,209.174 294.725,209.174 C295.518337,209.174 296.24633,208.903336 296.909,208.362 L297.287,209.188 C296.988332,209.468001 296.605669,209.689666 296.139,209.853 C295.672331,210.016334 295.196336,210.098 294.711,210.098 C293.646995,210.098 292.809336,209.785336 292.198,209.16 C291.586664,208.534664 291.281,207.671339 291.281,206.57 C291.281,205.869997 291.416332,205.251669 291.687,204.715 C291.957668,204.178331 292.337998,203.760668 292.828,203.462 C293.318002,203.163332 293.875664,203.014 294.501,203.014 C295.406338,203.014 296.115664,203.31033 296.629,203.903 C297.142336,204.49567 297.399,205.309995 297.399,206.346 L297.399,206.766 Z M294.515,203.896 C293.917664,203.896 293.439335,204.082665 293.08,204.456 C292.720665,204.829335 292.508334,205.356663 292.443,206.038 L296.405,206.038 C296.386333,205.34733 296.213668,204.817669 295.887,204.449 C295.560332,204.080331 295.103003,203.896 294.515,203.896 Z M308.725,200.13 L308.725,210 L307.591,210 L307.591,208.754 C307.385666,209.183335 307.084669,209.514666 306.688,209.748 C306.291331,209.981335 305.827003,210.098 305.295,210.098 C304.697664,210.098 304.170336,209.948668 303.713,209.65 C303.255664,209.351332 302.901001,208.933669 302.649,208.397 C302.396999,207.860331 302.271,207.237337 302.271,206.528 C302.271,205.827997 302.396999,205.212003 302.649,204.68 C302.901001,204.147997 303.255664,203.737335 303.713,203.448 C304.170336,203.158665 304.697664,203.014 305.295,203.014 C305.827003,203.014 306.291331,203.130665 306.688,203.364 C307.084669,203.597334 307.385666,203.928665 307.591,204.358 L307.591,200.13 L308.725,200.13 Z M305.519,209.16 C306.18167,209.16 306.692665,208.933669 307.052,208.481 C307.411335,208.028331 307.591,207.386671 307.591,206.556 C307.591,205.725329 307.411335,205.086002 307.052,204.638 C306.692665,204.189998 306.18167,203.966 305.519,203.966 C304.85633,203.966 304.340669,204.189998 303.972,204.638 C303.603331,205.086002 303.419,205.715996 303.419,206.528 C303.419,207.358671 303.603331,208.004998 303.972,208.467 C304.340669,208.929002 304.85633,209.16 305.519,209.16 Z M316.537,206.766 L311.553,206.766 C311.590334,207.559337 311.804998,208.158998 312.197,208.565 C312.589002,208.971002 313.14433,209.174 313.863,209.174 C314.656337,209.174 315.38433,208.903336 316.047,208.362 L316.425,209.188 C316.126332,209.468001 315.743669,209.689666 315.277,209.853 C314.810331,210.016334 314.334336,210.098 313.849,210.098 C312.784995,210.098 311.947336,209.785336 311.336,209.16 C310.724664,208.534664 310.419,207.671339 310.419,206.57 C310.419,205.869997 310.554332,205.251669 310.825,204.715 C311.095668,204.178331 311.475998,203.760668 311.966,203.462 C312.456002,203.163332 313.013664,203.014 313.639,203.014 C314.544338,203.014 315.253664,203.31033 315.767,203.903 C316.280336,204.49567 316.537,205.309995 316.537,206.346 L316.537,206.766 Z M313.653,203.896 C313.055664,203.896 312.577335,204.082665 312.218,204.456 C311.858665,204.829335 311.646334,205.356663 311.581,206.038 L315.543,206.038 C315.524333,205.34733 315.351668,204.817669 315.025,204.449 C314.698332,204.080331 314.241003,203.896 313.653,203.896 Z M321.199,209.188 C321.404334,209.188 321.609666,209.174 321.815,209.146 L321.759,210.042 C321.544332,210.079334 321.311001,210.098 321.059,210.098 C320.237663,210.098 319.619335,209.883335 319.204,209.454 C318.788665,209.024665 318.581,208.427337 318.581,207.662 L318.581,204.078 L317.251,204.078 L317.251,203.182 L318.581,203.182 L318.581,201.11 L319.715,201.11 L319.715,203.182 L321.647,203.182 L321.647,204.078 L319.715,204.078 L319.715,207.578 C319.715,208.651339 320.209662,209.188 321.199,209.188 Z M328.675,206.766 L323.691,206.766 C323.728334,207.559337 323.942998,208.158998 324.335,208.565 C324.727002,208.971002 325.28233,209.174 326.001,209.174 C326.794337,209.174 327.52233,208.903336 328.185,208.362 L328.563,209.188 C328.264332,209.468001 327.881669,209.689666 327.415,209.853 C326.948331,210.016334 326.472336,210.098 325.987,210.098 C324.922995,210.098 324.085336,209.785336 323.474,209.16 C322.862664,208.534664 322.557,207.671339 322.557,206.57 C322.557,205.869997 322.692332,205.251669 322.963,204.715 C323.233668,204.178331 323.613998,203.760668 324.104,203.462 C324.594002,203.163332 325.151664,203.014 325.777,203.014 C326.682338,203.014 327.391664,203.31033 327.905,203.903 C328.418336,204.49567 328.675,205.309995 328.675,206.346 L328.675,206.766 Z M325.791,203.896 C325.193664,203.896 324.715335,204.082665 324.356,204.456 C323.996665,204.829335 323.784334,205.356663 323.719,206.038 L327.681,206.038 C327.662333,205.34733 327.489668,204.817669 327.163,204.449 C326.836332,204.080331 326.379003,203.896 325.791,203.896 Z M333.225,210.098 C332.552997,210.098 331.969669,209.953335 331.475,209.664 C330.980331,209.374665 330.600001,208.966336 330.334,208.439 C330.067999,207.911664 329.935,207.293337 329.935,206.584 C329.935,205.874663 330.072665,205.251669 330.348,204.715 C330.623335,204.178331 331.010664,203.760668 331.51,203.462 C332.009336,203.163332 332.594997,203.014 333.267,203.014 C333.724336,203.014 334.172331,203.095666 334.611,203.259 C335.049669,203.422334 335.404332,203.639332 335.675,203.91 L335.297,204.75 C334.652997,204.227331 333.99967,203.966 333.337,203.966 C332.636997,203.966 332.091002,204.194664 331.699,204.652 C331.306998,205.109336 331.111,205.753329 331.111,206.584 C331.111,207.405337 331.306998,208.039998 331.699,208.488 C332.091002,208.936002 332.636997,209.16 333.337,209.16 C333.99967,209.16 334.652997,208.898669 335.297,208.376 L335.675,209.216 C335.385665,209.486668 335.021669,209.701333 334.583,209.86 C334.144331,210.018667 333.691669,210.098 333.225,210.098 Z M340.043,209.188 C340.248334,209.188 340.453666,209.174 340.659,209.146 L340.603,210.042 C340.388332,210.079334 340.155001,210.098 339.903,210.098 C339.081663,210.098 338.463335,209.883335 338.048,209.454 C337.632665,209.024665 337.425,208.427337 337.425,207.662 L337.425,204.078 L336.095,204.078 L336.095,203.182 L337.425,203.182 L337.425,201.11 L338.559,201.11 L338.559,203.182 L340.491,203.182 L340.491,204.078 L338.559,204.078 L338.559,207.578 C338.559,208.651339 339.053662,209.188 340.043,209.188 Z M344.635,210.098 C343.990997,210.098 343.424002,209.953335 342.934,209.664 C342.443998,209.374665 342.066001,208.961669 341.8,208.425 C341.533999,207.888331 341.401,207.265337 341.401,206.556 C341.401,205.846663 341.533999,205.223669 341.8,204.687 C342.066001,204.150331 342.443998,203.737335 342.934,203.448 C343.424002,203.158665 343.990997,203.014 344.635,203.014 C345.279003,203.014 345.848331,203.158665 346.343,203.448 C346.837669,203.737335 347.217999,204.150331 347.484,204.687 C347.750001,205.223669 347.883,205.846663 347.883,206.556 C347.883,207.265337 347.750001,207.888331 347.484,208.425 C347.217999,208.961669 346.837669,209.374665 346.343,209.664 C345.848331,209.953335 345.279003,210.098 344.635,210.098 Z M344.635,209.16 C345.307003,209.16 345.822665,208.938336 346.182,208.495 C346.541335,208.051664 346.721,207.405338 346.721,206.556 C346.721,205.725329 346.539002,205.083669 346.175,204.631 C345.810998,204.178331 345.29767,203.952 344.635,203.952 C343.97233,203.952 343.459002,204.178331 343.095,204.631 C342.730998,205.083669 342.549,205.725329 342.549,206.556 C342.549,207.396004 342.728665,208.039998 343.088,208.488 C343.447335,208.936002 343.962997,209.16 344.635,209.16 Z M353.441,203.994 L352.699,204.064 C351.998996,204.129334 351.492668,204.348665 351.18,204.722 C350.867332,205.095335 350.711,205.557331 350.711,206.108 L350.711,210 L349.577,210 L349.577,203.182 L350.683,203.182 L350.683,204.372 C351.065669,203.578663 351.816994,203.135334 352.937,203.042 L353.343,203.014 L353.441,203.994 Z" id="Horizontaledgedetector" fill="#0F1931" fill-rule="nonzero"></path>
    </g>
</svg>