<?xml version="1.0" encoding="UTF-8"?>
<svg width="376px" height="293px" viewBox="0 0 376 293" version="1.1" xmlns="http://www.w3.org/2000/svg" xmlns:xlink="http://www.w3.org/1999/xlink">
    <!-- Generator: Sketch 59.1 (86144) - https://sketch.com -->
    <title>ReLU</title>
    <desc>Created with Sketch.</desc>
    <g id="ReLU" stroke="none" stroke-width="1" fill="none" fill-rule="evenodd">
        <rect fill="#FFFFFF" x="0" y="0" width="376" height="293"></rect>
        <g id="Group-2" transform="translate(16.000000, 17.000000)" fill-rule="nonzero">
            <g id="Grid" transform="translate(24.000000, 31.500000)" fill="#DBE5FD">
                <g id="Bl-Grey">
                    <g id="Ver" transform="translate(76.965995, 0.000000)">
                        <rect id="Rectangle-Copy" x="0.0340050378" y="0.5" width="2" height="204"></rect>
                        <rect id="Rectangle-Copy-4" x="80.034005" y="0.5" width="2" height="204"></rect>
                        <rect id="Rectangle-Copy-5" x="160.034005" y="0.5" width="2" height="204"></rect>
                    </g>
                    <g id="Hor" transform="translate(0.000000, 39.417795)">
                        <polygon id="Rectangle-Copy-12" transform="translate(158.500000, 1.870465) rotate(-90.000000) translate(-158.500000, -1.870465) " points="157.699226 -156.629535 159.300774 -156.629535 159.300774 160.370465 157.699226 160.370465"></polygon>
                        <polygon id="Rectangle-Copy-13" transform="translate(158.500000, 41.645202) rotate(-90.000000) translate(-158.500000, -41.645202) " points="157.699226 -116.854798 159.300774 -116.854798 159.300774 200.145202 157.699226 200.145202"></polygon>
                        <polygon id="Rectangle-Copy-14" transform="translate(158.500000, 84.019049) rotate(-90.000000) translate(-158.500000, -84.019049) " points="157.699226 -74.4809512 159.300774 -74.4809512 159.300774 242.519049 157.699226 242.519049"></polygon>
                        <polygon id="Rectangle-Copy-15" transform="translate(158.500000, 125.392895) rotate(-90.000000) translate(-158.500000, -125.392895) " points="157.699226 -33.1071045 159.300774 -33.1071045 159.300774 283.892895 157.699226 283.892895"></polygon>
                    </g>
                </g>
            </g>
            <path d="M338,32 C339.656854,32 341,33.3431458 341,35 L341,233 C341,234.656854 339.656854,236 338,236 L25.9853302,236 C24.334216,236 22.9934598,234.6658 22.9853662,233.014706 L22.0147411,35.0147057 C22.0066562,33.3578714 23.3432019,32.0081578 25.0000362,32 L338,32 Z M25.0049381,33 C23.9003819,33.0054385 23.0093515,33.9052476 23.0147171,35.0098038 L23.9853542,233.009804 C23.9907499,234.110533 24.8845874,235 25.9853302,235 L338,235 C339.104569,235 340,234.104569 340,233 L340,35 C340,33.9456382 339.184122,33.0818349 338.149262,33.0054857 L338,33 L25.0049381,33 Z" id="Rectangle" fill="#0F1931"></path>
            <g id="X-Axis" transform="translate(17.000000, 234.500000)" fill="#0F1931">
                <path d="M0.595,19.0183146 L0.595,18.3483146 L3.395,18.3483146 L3.395,19.0183146 L0.595,19.0183146 Z M7.795,20.6583146 L9.345,20.6583146 L9.345,21.3483146 L5.425,21.3483146 L5.425,20.6583146 L6.975,20.6583146 L6.975,15.3183146 L5.735,16.0983146 L5.355,15.4683146 L7.205,14.2983146 L7.795,14.2983146 L7.795,20.6583146 Z" id="-10"></path>
                <path d="M13.125,14.2183146 C13.9316707,14.2183146 14.5449979,14.5233116 14.965,15.1333146 C15.3850021,15.7433177 15.595,16.6383087 15.595,17.8183146 C15.595,18.9983205 15.3850021,19.8949782 14.965,20.5083146 C14.5449979,21.121651 13.9316707,21.4283146 13.125,21.4283146 C12.3183293,21.4283146 11.7050021,21.121651 11.285,20.5083146 C10.8649979,19.8949782 10.655,19.0016538 10.655,17.8283146 C10.655,16.6483087 10.8649979,15.751651 11.285,15.1383146 C11.7050021,14.5249782 12.3183293,14.2183146 13.125,14.2183146 Z M13.125,14.9183146 C12.5649972,14.9183146 12.151668,15.1516456 11.885,15.6183146 C11.618332,16.0849836 11.485,16.8183096 11.485,17.8183146 C11.485,18.8183196 11.618332,19.5549789 11.885,20.0283146 C12.151668,20.5016503 12.5649972,20.7383146 13.125,20.7383146 C13.6850028,20.7383146 14.098332,20.5016503 14.365,20.0283146 C14.631668,19.5549789 14.765,18.8183196 14.765,17.8183146 C14.765,16.8116429 14.6333346,16.0766503 14.37,15.6133146 C14.1066653,15.149979 13.6916695,14.9183146 13.125,14.9183146 Z" id="Combined-Shape"></path>
                <path d="M80.795,19.0183146 L80.795,18.3483146 L83.595,18.3483146 L83.595,19.0183146 L80.795,19.0183146 Z M87.625,16.9283146 C88.0716689,16.9283146 88.4599983,17.021647 88.79,17.2083146 C89.1200016,17.3949822 89.3749991,17.6566463 89.555,17.9933146 C89.7350009,18.329983 89.825,18.7183124 89.825,19.1583146 C89.825,19.6049835 89.7266676,19.9983129 89.53,20.3383146 C89.3333323,20.6783163 89.0550018,20.9433137 88.695,21.1333146 C88.3349982,21.3233156 87.9150024,21.4183146 87.435,21.4183146 C87.0083312,21.4183146 86.5866687,21.3399821 86.17,21.1833146 C85.7533312,21.0266472 85.4016681,20.8149826 85.115,20.5483146 L85.425,19.9183146 C86.0783366,20.4583173 86.7483299,20.7283146 87.435,20.7283146 C87.9283358,20.7283146 88.3149986,20.588316 88.595,20.3083146 C88.8750014,20.0283132 89.015,19.648317 89.015,19.1683146 C89.015,18.7016456 88.876668,18.3249827 88.6,18.0383146 C88.3233319,17.7516465 87.9550023,17.6083146 87.495,17.6083146 C86.8216633,17.6083146 86.285002,17.8816452 85.885,18.4283146 L85.315,18.4283146 L85.315,14.2983146 L89.545,14.2983146 L89.545,14.9783146 L86.125,14.9783146 L86.125,17.4883146 C86.3116676,17.3083137 86.533332,17.1699818 86.79,17.0733146 C87.0466679,16.9766475 87.3249985,16.9283146 87.625,16.9283146 Z" id="-5"></path>
                <path d="M165.4,14.2183146 C166.206671,14.2183146 166.819998,14.5233116 167.24,15.1333146 C167.660002,15.7433177 167.87,16.6383087 167.87,17.8183146 C167.87,18.9983205 167.660002,19.8949782 167.24,20.5083146 C166.819998,21.121651 166.206671,21.4283146 165.4,21.4283146 C164.593329,21.4283146 163.980002,21.121651 163.56,20.5083146 C163.139998,19.8949782 162.93,19.0016538 162.93,17.8283146 C162.93,16.6483087 163.139998,15.751651 163.56,15.1383146 C163.980002,14.5249782 164.593329,14.2183146 165.4,14.2183146 Z M165.4,14.9183146 C164.839997,14.9183146 164.426668,15.1516456 164.16,15.6183146 C163.893332,16.0849836 163.76,16.8183096 163.76,17.8183146 C163.76,18.8183196 163.893332,19.5549789 164.16,20.0283146 C164.426668,20.5016503 164.839997,20.7383146 165.4,20.7383146 C165.960003,20.7383146 166.373332,20.5016503 166.64,20.0283146 C166.906668,19.5549789 167.04,18.8183196 167.04,17.8183146 C167.04,16.8116429 166.908335,16.0766503 166.645,15.6133146 C166.381665,15.149979 165.96667,14.9183146 165.4,14.9183146 Z" id="0"></path>
                <path d="M245.1,16.9283146 C245.546669,16.9283146 245.934998,17.021647 246.265,17.2083146 C246.595002,17.3949822 246.849999,17.6566463 247.03,17.9933146 C247.210001,18.329983 247.3,18.7183124 247.3,19.1583146 C247.3,19.6049835 247.201668,19.9983129 247.005,20.3383146 C246.808332,20.6783163 246.530002,20.9433137 246.17,21.1333146 C245.809998,21.3233156 245.390002,21.4183146 244.91,21.4183146 C244.483331,21.4183146 244.061669,21.3399821 243.645,21.1833146 C243.228331,21.0266472 242.876668,20.8149826 242.59,20.5483146 L242.9,19.9183146 C243.553337,20.4583173 244.22333,20.7283146 244.91,20.7283146 C245.403336,20.7283146 245.789999,20.588316 246.07,20.3083146 C246.350001,20.0283132 246.49,19.648317 246.49,19.1683146 C246.49,18.7016456 246.351668,18.3249827 246.075,18.0383146 C245.798332,17.7516465 245.430002,17.6083146 244.97,17.6083146 C244.296663,17.6083146 243.760002,17.8816452 243.36,18.4283146 L242.79,18.4283146 L242.79,14.2983146 L247.02,14.2983146 L247.02,14.9783146 L243.6,14.9783146 L243.6,17.4883146 C243.786668,17.3083137 244.008332,17.1699818 244.265,17.0733146 C244.521668,16.9766475 244.799998,16.9283146 245.1,16.9283146 Z" id="5"></path>
                <path d="M317.67,14.2983146 L317.67,20.6583146 L319.22,20.6583146 L319.22,21.3483146 L315.3,21.3483146 L315.3,20.6583146 L316.85,20.6583146 L316.85,15.3183146 L315.61,16.0983146 L315.23,15.4683146 L317.08,14.2983146 L317.67,14.2983146 Z" id="10"></path>
                <g id="Ticks" transform="translate(164.826966, 3.626966) rotate(-90.000000) translate(-164.826966, -3.626966) translate(161.826966, -153.373034)">
                    <path d="M5.12696629,-0.226966292 L0.126966292,-0.226966292 C-0.425318458,-0.226966292 -0.873033708,0.220748958 -0.873033708,0.773033708 C-0.873033708,1.32531846 -0.425318458,1.77303371 0.126966292,1.77303371 L5.12696629,1.77303371 C5.67925104,1.77303371 6.12696629,1.32531846 6.12696629,0.773033708 C6.12696629,0.220748958 5.67925104,-0.226966292 5.12696629,-0.226966292 Z" id="1"></path>
                    <path d="M5.12696629,76.1730337 L1.12696629,76.1730337 C0.574681542,76.1730337 0.126966292,76.620749 0.126966292,77.1730337 C0.126966292,77.7253185 0.574681542,78.1730337 1.12696629,78.1730337 L5.12696629,78.1730337 C5.67925104,78.1730337 6.12696629,77.7253185 6.12696629,77.1730337 C6.12696629,76.620749 5.67925104,76.1730337 5.12696629,76.1730337 Z" id="2"></path>
                    <path d="M5.12696629,156.173034 L1.12696629,156.173034 C0.574681542,156.173034 0.126966292,156.620749 0.126966292,157.173034 C0.126966292,157.725318 0.574681542,158.173034 1.12696629,158.173034 L5.12696629,158.173034 C5.67925104,158.173034 6.12696629,157.725318 6.12696629,157.173034 C6.12696629,156.620749 5.67925104,156.173034 5.12696629,156.173034 Z" id="4"></path>
                    <path d="M5.12696629,236.173034 L1.12696629,236.173034 C0.574681542,236.173034 0.126966292,236.620749 0.126966292,237.173034 C0.126966292,237.725318 0.574681542,238.173034 1.12696629,238.173034 L5.12696629,238.173034 C5.67925104,238.173034 6.12696629,237.725318 6.12696629,237.173034 C6.12696629,236.620749 5.67925104,236.173034 5.12696629,236.173034 Z" id="6"></path>
                    <path d="M5.12696629,311.773034 L1.12696629,311.773034 C0.574681542,311.773034 0.126966292,312.220749 0.126966292,312.773034 C0.126966292,313.325318 0.574681542,313.773034 1.12696629,313.773034 L5.12696629,313.773034 C5.67925104,313.773034 6.12696629,313.325318 6.12696629,312.773034 C6.12696629,312.220749 5.67925104,311.773034 5.12696629,311.773034 Z" id="8"></path>
                </g>
            </g>
            <g id="Y-Axis" transform="translate(0.000000, 30.500000)" fill="#0F1931">
                <polygon id="10" points="3.13153846 6.81 4.68153846 6.81 4.68153846 7.5 0.761538462 7.5 0.761538462 6.81 2.31153846 6.81 2.31153846 1.47 1.07153846 2.25 0.691538462 1.62 2.54153846 0.45 3.13153846 0.45"></polygon>
                <path d="M8.46153846,0.37 C9.26820916,0.37 9.88153636,0.67499695 10.3015385,1.285 C10.7215406,1.89500305 10.9315385,2.7899941 10.9315385,3.97 C10.9315385,5.1500059 10.7215406,6.0466636 10.3015385,6.66 C9.88153636,7.2733364 9.26820916,7.58 8.46153846,7.58 C7.65486776,7.58 7.04154056,7.2733364 6.62153846,6.66 C6.20153636,6.0466636 5.99153846,5.1533392 5.99153846,3.98 C5.99153846,2.7999941 6.20153636,1.9033364 6.62153846,1.29 C7.04154056,0.6766636 7.65486776,0.37 8.46153846,0.37 Z M8.46153846,1.07 C7.90153566,1.07 7.48820646,1.303331 7.22153846,1.77 C6.95487046,2.236669 6.82153846,2.969995 6.82153846,3.97 C6.82153846,4.970005 6.95487046,5.7066643 7.22153846,6.18 C7.48820646,6.6533357 7.90153566,6.89 8.46153846,6.89 C9.02154126,6.89 9.43487046,6.6533357 9.70153846,6.18 C9.96820646,5.7066643 10.1015385,4.970005 10.1015385,3.97 C10.1015385,2.9633283 9.96987311,2.22833565 9.70653846,1.765 C9.44320381,1.30166435 9.02820796,1.07 8.46153846,1.07 Z" id="Combined-Shape"></path>
                <path d="M8.46153846,38.37 C9.20154216,38.37 9.77986971,38.5383317 10.1965385,38.875 C10.6132072,39.2116683 10.8215385,39.6666638 10.8215385,40.24 C10.8215385,40.6266686 10.7182062,40.9649986 10.5115385,41.255 C10.3048708,41.5450015 10.0282069,41.7533327 9.68153846,41.88 C10.0948739,42.0066673 10.4165373,42.2233318 10.6465385,42.53 C10.8765396,42.8366682 10.9915385,43.2033312 10.9915385,43.63 C10.9915385,44.2366697 10.7715407,44.7116649 10.3315385,45.055 C9.89153626,45.3983351 9.26820916,45.57 8.46153846,45.57 C7.65486776,45.57 7.03154066,45.3983351 6.59153846,45.055 C6.15153626,44.7116649 5.93153846,44.2366697 5.93153846,43.63 C5.93153846,43.1966645 6.04820396,42.8266682 6.28153846,42.52 C6.51487296,42.2133318 6.83820306,42.0000006 7.25153846,41.88 C6.89820336,41.746666 6.61820616,41.5366681 6.41153846,41.25 C6.20487076,40.9633319 6.10153846,40.6266686 6.10153846,40.24 C6.10153846,39.6666638 6.30986971,39.2116683 6.72653846,38.875 C7.14320721,38.5383317 7.72153476,38.37 8.46153846,38.37 Z M8.46153846,42.27 C7.31486606,42.27 6.74153846,42.7066623 6.74153846,43.58 C6.74153846,44.4533377 7.31486606,44.89 8.46153846,44.89 C9.60821086,44.89 10.1815385,44.4533377 10.1815385,43.58 C10.1815385,42.7066623 9.60821086,42.27 8.46153846,42.27 Z M8.46153846,39.05 C7.95486926,39.05 7.56987311,39.1599989 7.30653846,39.38 C7.04320381,39.6000011 6.91153846,39.9066647 6.91153846,40.3 C6.91153846,40.7133354 7.04320381,41.0299989 7.30653846,41.25 C7.56987311,41.4700011 7.95486926,41.58 8.46153846,41.58 C8.96820766,41.58 9.35320381,41.4700011 9.61653846,41.25 C9.87987311,41.0299989 10.0115385,40.7133354 10.0115385,40.3 C10.0115385,39.9066647 9.87987311,39.6000011 9.61653846,39.38 C9.35320381,39.1599989 8.96820766,39.05 8.46153846,39.05 Z" id="8"></path>
                <path d="M8.75153846,78.37 C9.15820716,78.37 9.55486986,78.4449992 9.94153846,78.595 C10.3282071,78.7450008 10.6682037,78.9599986 10.9615385,79.24 L10.6515385,79.87 C10.3182035,79.5899986 9.99987331,79.3850006 9.69653846,79.255 C9.39320361,79.1249993 9.08487336,79.06 8.77153846,79.06 C8.16486876,79.06 7.69320681,79.3283306 7.35653846,79.865 C7.01987011,80.4016694 6.85153846,81.1599951 6.85153846,82.14 L6.85153846,82.29 C7.00487256,81.9166648 7.25153676,81.6200011 7.59153846,81.4 C7.93154016,81.1799989 8.32486956,81.07 8.77153846,81.07 C9.19820726,81.07 9.57820346,81.1633324 9.91153846,81.35 C10.2448735,81.5366676 10.5048709,81.7999983 10.6915385,82.14 C10.8782061,82.4800017 10.9715385,82.87 10.9715385,83.31 C10.9715385,83.7433355 10.8748728,84.1333316 10.6815385,84.48 C10.4882042,84.8266684 10.2182069,85.0966657 9.87153846,85.29 C9.52487006,85.4833343 9.13487396,85.58 8.70153846,85.58 C7.84820086,85.58 7.18987411,85.2833363 6.72653846,84.69 C6.26320281,84.0966637 6.03153846,83.2500055 6.03153846,82.15 C6.03153846,81.3566627 6.13987071,80.6766695 6.35653846,80.11 C6.57320621,79.5433305 6.88486976,79.1116681 7.29153846,78.815 C7.69820716,78.5183318 8.18486896,78.37 8.75153846,78.37 Z M8.65153846,81.76 C8.19153616,81.76 7.81653991,81.9049986 7.52653846,82.195 C7.23653701,82.4850014 7.09153846,82.8599977 7.09153846,83.32 C7.09153846,83.786669 7.23653701,84.1649986 7.52653846,84.455 C7.81653991,84.7450015 8.19486946,84.89 8.66153846,84.89 C9.11487406,84.89 9.47820376,84.7466681 9.75153846,84.46 C10.0248732,84.1733319 10.1615385,83.7933357 10.1615385,83.32 C10.1615385,82.853331 10.0232065,82.4766681 9.74653846,82.19 C9.46987041,81.9033319 9.10487406,81.76 8.65153846,81.76 Z" id="6"></path>
                <path d="M10.0415385,120.45 L10.0415385,125.29 L11.1015385,125.29 L11.1015385,125.97 L10.0415385,125.97 L10.0415385,127.5 L9.23153846,127.5 L9.23153846,125.97 L5.97153846,125.97 L5.97153846,125.35 L9.37153846,120.45 L10.0415385,120.45 Z M9.23153846,121.82 L6.82153846,125.29 L9.23153846,125.29 L9.23153846,121.82 Z" id="4"></path>
                <path d="M10.8515385,168.81 L10.8515385,169.5 L6.31153846,169.5 L6.31153846,168.88 L8.78153846,166.16 C9.11487346,165.786665 9.35653771,165.451668 9.50653846,165.155 C9.65653921,164.858332 9.73153846,164.560001 9.73153846,164.26 C9.73153846,163.873331 9.61820626,163.576668 9.39153846,163.37 C9.16487066,163.163332 8.84487386,163.06 8.43153846,163.06 C7.75153506,163.06 7.08487506,163.329997 6.43153846,163.87 L6.12153846,163.24 C6.40153986,162.973332 6.75320301,162.761667 7.17653846,162.605 C7.59987391,162.448333 8.02486966,162.37 8.45153846,162.37 C9.09820836,162.37 9.60986991,162.536665 9.98653846,162.87 C10.363207,163.203335 10.5515385,163.653331 10.5515385,164.22 C10.5515385,164.626669 10.4598727,165.016665 10.2765385,165.39 C10.0932042,165.763335 9.79154056,166.179998 9.37153846,166.64 L7.37153846,168.81 L10.8515385,168.81 Z" id="2"></path>
                <path d="M8.46153846,199.37 C9.26820916,199.37 9.88153636,199.674997 10.3015385,200.285 C10.7215406,200.895003 10.9315385,201.789994 10.9315385,202.97 C10.9315385,204.150006 10.7215406,205.046664 10.3015385,205.66 C9.88153636,206.273336 9.26820916,206.58 8.46153846,206.58 C7.65486776,206.58 7.04154056,206.273336 6.62153846,205.66 C6.20153636,205.046664 5.99153846,204.153339 5.99153846,202.98 C5.99153846,201.799994 6.20153636,200.903336 6.62153846,200.29 C7.04154056,199.676664 7.65486776,199.37 8.46153846,199.37 Z M8.46153846,200.07 C7.90153566,200.07 7.48820646,200.303331 7.22153846,200.77 C6.95487046,201.236669 6.82153846,201.969995 6.82153846,202.97 C6.82153846,203.970005 6.95487046,204.706664 7.22153846,205.18 C7.48820646,205.653336 7.90153566,205.89 8.46153846,205.89 C9.02154126,205.89 9.43487046,205.653336 9.70153846,205.18 C9.96820646,204.706664 10.1015385,203.970005 10.1015385,202.97 C10.1015385,201.963328 9.96987311,201.228336 9.70653846,200.765 C9.44320381,200.301664 9.02820796,200.07 8.46153846,200.07 Z" id="0"></path>
                <g id="ticks" transform="translate(18.628205, 3.409800)">
                    <path d="M3.37179487,-0.220489978 L0.371794872,-0.220489978 C-0.180489878,-0.220489978 -0.628205128,0.227225272 -0.628205128,0.779510022 C-0.628205128,1.33179477 -0.180489878,1.77951002 0.371794872,1.77951002 L3.37179487,1.77951002 C3.92407962,1.77951002 4.37179487,1.33179477 4.37179487,0.779510022 C4.37179487,0.227225272 3.92407962,-0.220489978 3.37179487,-0.220489978 Z" id="1"></path>
                    <path d="M4.37179487,198.400891 L0.371794872,198.400891 C-0.180489878,198.400891 -0.628205128,198.848606 -0.628205128,199.400891 C-0.628205128,199.953176 -0.180489878,200.400891 0.371794872,200.400891 L4.37179487,200.400891 C4.92407962,200.400891 5.37179487,199.953176 5.37179487,199.400891 C5.37179487,198.848606 4.92407962,198.400891 4.37179487,198.400891 Z" id="8-copy"></path>
                    <path d="M3.37179487,37.8784601 L0.371794872,37.8784601 C-0.180489878,37.8784601 -0.628205128,38.3261753 -0.628205128,38.8784601 C-0.628205128,39.4307448 -0.180489878,39.8784601 0.371794872,39.8784601 L3.37179487,39.8784601 C3.92407962,39.8784601 4.37179487,39.4307448 4.37179487,38.8784601 C4.37179487,38.3261753 3.92407962,37.8784601 3.37179487,37.8784601 Z" id="5"></path>
                    <path d="M3.37179487,77.6531976 L0.371794872,77.6531976 C-0.180489878,77.6531976 -0.628205128,78.1009128 -0.628205128,78.6531976 C-0.628205128,79.2054823 -0.180489878,79.6531976 0.371794872,79.6531976 L3.37179487,79.6531976 C3.92407962,79.6531976 4.37179487,79.2054823 4.37179487,78.6531976 C4.37179487,78.1009128 3.92407962,77.6531976 3.37179487,77.6531976 Z" id="6"></path>
                    <path d="M3.37179487,120.027044 L0.371794872,120.027044 C-0.180489878,120.027044 -0.628205128,120.474759 -0.628205128,121.027044 C-0.628205128,121.579329 -0.180489878,122.027044 0.371794872,122.027044 L3.37179487,122.027044 C3.92407962,122.027044 4.37179487,121.579329 4.37179487,121.027044 C4.37179487,120.474759 3.92407962,120.027044 3.37179487,120.027044 Z" id="7"></path>
                    <path d="M3.37179487,161.400891 L0.371794872,161.400891 C-0.180489878,161.400891 -0.628205128,161.848606 -0.628205128,162.400891 C-0.628205128,162.953176 -0.180489878,163.400891 0.371794872,163.400891 L3.37179487,163.400891 C3.92407962,163.400891 4.37179487,162.953176 4.37179487,162.400891 C4.37179487,161.848606 3.92407962,161.400891 3.37179487,161.400891 Z" id="8"></path>
                </g>
                <path d="M181.027953,202 L24.6,202 C23.4954305,202 22.6,202.895431 22.6,204 C22.6,205.104569 23.4954305,206 24.6,206 L182.972047,206 L340.39958,5.64547235 C341.082023,4.77694198 340.931169,3.51962945 340.062639,2.83718621 C339.194109,2.15474297 337.936796,2.30559639 337.254353,3.17412676 L181.027953,202 Z" id="Path"></path>
            </g>
            <path d="M174.24,10 L172.28,10 L170.586,6.85 C170.427333,6.55133184 170.231334,6.34133394 169.998,6.22 C169.764665,6.09866606 169.470668,6.038 169.116,6.038 L167.744,6.038 L167.744,10 L165.966,10 L165.966,0.13 L170.334,0.13 C171.454006,0.13 172.305664,0.37966417 172.889,0.879 C173.472336,1.37833583 173.764,2.09932862 173.764,3.042 C173.764,3.79800378 173.551669,4.42099755 173.127,4.911 C172.702331,5.40100245 172.102671,5.72066592 171.328,5.87 C171.850669,6.0100007 172.270665,6.37866368 172.588,6.976 L174.24,10 Z M170.082,4.652 C170.763337,4.652 171.262665,4.52366795 171.58,4.267 C171.897335,4.01033205 172.056,3.61600266 172.056,3.084 C172.056,2.54266396 171.897335,2.14833457 171.58,1.901 C171.262665,1.65366543 170.763337,1.53 170.082,1.53 L167.73,1.53 L167.73,4.652 L170.082,4.652 Z M181.548,6.892 L176.886,6.892 C176.942,7.52666984 177.133332,7.99799846 177.46,8.306 C177.786668,8.61400154 178.25333,8.768 178.86,8.768 C179.616004,8.768 180.306664,8.52533576 180.932,8.04 L181.436,9.244 C181.118665,9.50533464 180.719669,9.71533254 180.239,9.874 C179.758331,10.0326675 179.275336,10.112 178.79,10.112 C177.669994,10.112 176.78567,9.79466984 176.137,9.16 C175.48833,8.52533016 175.164,7.65733884 175.164,6.556 C175.164,5.8559965 175.303999,5.23533604 175.584,4.694 C175.864001,4.15266396 176.258331,3.73266816 176.767,3.434 C177.275669,3.13533184 177.851997,2.986 178.496,2.986 C179.438671,2.986 180.182997,3.2893303 180.729,3.896 C181.275003,4.5026697 181.548,5.33799468 181.548,6.402 L181.548,6.892 Z M178.538,4.218 C178.071331,4.218 177.695668,4.36733184 177.411,4.666 C177.126332,4.96466816 176.951334,5.3939972 176.886,5.954 L180.05,5.954 C180.031333,5.38466382 179.891335,4.95300147 179.63,4.659 C179.368665,4.36499853 179.004669,4.218 178.538,4.218 Z M183.13,10 L183.13,0.13 L184.936,0.13 L184.936,8.516 L189.542,8.516 L189.542,10 L183.13,10 Z M194.974,10.126 C193.62066,10.126 192.594003,9.7760035 191.894,9.076 C191.193996,8.3759965 190.844,7.35400672 190.844,6.01 L190.844,0.13 L192.608,0.13 L192.608,6.108 C192.608,6.95733758 192.808665,7.59899783 193.21,8.033 C193.611335,8.46700217 194.199329,8.684 194.974,8.684 C195.739337,8.684 196.322665,8.46466886 196.724,8.026 C197.125335,7.58733114 197.326,6.9480042 197.326,6.108 L197.326,0.13 L199.09,0.13 L199.09,6.01 C199.09,7.34467334 198.740003,8.36432981 198.04,9.069 C197.339996,9.77367019 196.318007,10.126 194.974,10.126 Z" id="ReLU" fill="#0F1931"></path>
        </g>
        <path d="M55.136,67.154 L56.942,67.154 L56.942,68.47 L55.136,68.47 L55.136,74 L53.386,74 L53.386,68.47 L52.07,68.47 L52.07,67.154 L53.386,67.154 C53.386,66.1739951 53.6403308,65.4366691 54.149,64.942 C54.6152801,64.4885533 55.3187899,64.2194119 56.2595475,64.1345695 L57.208,64.074 L57.32,65.376 L56.662,65.404 C56.1113306,65.4320001 55.7193345,65.5556656 55.486,65.775 C55.2526655,65.9943344 55.136,66.3466642 55.136,66.832 L55.136,67.154 Z M60.288,76.73 C59.6066633,75.5726609 59.1260014,74.490005 58.846,73.482 C58.5659986,72.473995 58.426,71.4193388 58.426,70.318 C58.426,69.2166612 58.5659986,68.162005 58.846,67.154 C59.1260014,66.145995 59.6066633,65.0633391 60.288,63.906 L61.45,64.382 C60.9926644,65.511339 60.6730009,66.5379954 60.491,67.462 C60.3089991,68.3860046 60.218,69.3379951 60.218,70.318 C60.218,71.2980049 60.3089991,72.2499954 60.491,73.174 C60.6730009,74.0980046 60.9926644,75.124661 61.45,76.254 L60.288,76.73 Z M66.672,70.472 L69.556,74 L67.484,74 L65.664,71.718 L63.858,74 L61.786,74 L64.656,70.472 L61.94,67.154 L64.026,67.154 L65.664,69.24 L67.302,67.154 L69.388,67.154 L66.672,70.472 Z M69.878,76.254 C70.3353356,75.124661 70.6549991,74.0980046 70.837,73.174 C71.0190009,72.2499954 71.11,71.2980049 71.11,70.318 C71.11,69.3379951 71.0190009,68.3860046 70.837,67.462 C70.6549991,66.5379954 70.3353356,65.511339 69.878,64.382 L71.04,63.906 C71.7213367,65.0633391 72.2019986,66.145995 72.482,67.154 C72.7620014,68.162005 72.902,69.2166612 72.902,70.318 C72.902,71.4193388 72.7620014,72.473995 72.482,73.482 C72.2019986,74.490005 71.7213367,75.5726609 71.04,76.73 L69.878,76.254 Z M85.726,67.98 L85.726,69.212 L78.894,69.212 L78.894,67.98 L85.726,67.98 Z M85.726,70.78 L85.726,72.012 L78.894,72.012 L78.894,70.78 L85.726,70.78 Z M99.348,66.986 C100.122671,66.986 100.701331,67.2169977 101.084,67.679 C101.466669,68.1410023 101.658,68.8479952 101.658,69.8 L101.658,74 L99.908,74 L99.908,69.87 C99.908,69.3473307 99.8193342,68.9670012 99.642,68.729 C99.4646658,68.4909988 99.180002,68.372 98.788,68.372 C98.321331,68.372 97.9573346,68.5306651 97.696,68.848 C97.4346654,69.1653349 97.304,69.6086638 97.304,70.178 L97.304,74 L95.554,74 L95.554,69.87 C95.554,69.3473307 95.4676675,68.9670012 95.295,68.729 C95.1223325,68.4909988 94.8353353,68.372 94.434,68.372 C93.9766644,68.372 93.6173346,68.5306651 93.356,68.848 C93.0946654,69.1653349 92.964,69.6086638 92.964,70.178 L92.964,74 L91.214,74 L91.214,67.154 L92.922,67.154 L92.922,68.12 C93.1273344,67.7466648 93.4119982,67.4643343 93.776,67.273 C94.1400018,67.0816657 94.555331,66.986 95.022,66.986 C96.0580052,66.986 96.7439983,67.415329 97.08,68.274 C97.2946677,67.8726647 97.6026647,67.5576678 98.004,67.329 C98.4053353,67.1003322 98.8533309,66.986 99.348,66.986 Z M106.376,66.986 C107.337338,66.986 108.051331,67.219331 108.518,67.686 C108.984669,68.152669 109.218,68.8713285 109.218,69.842 L109.218,74 L107.552,74 L107.552,72.95 C107.393333,73.3140018 107.143668,73.5986656 106.803,73.804 C106.462332,74.0093344 106.068002,74.112 105.62,74.112 C105.162664,74.112 104.747335,74.0186676 104.374,73.832 C104.000665,73.6453324 103.706668,73.3886683 103.492,73.062 C103.277332,72.7353317 103.17,72.3713353 103.17,71.97 C103.17,71.4659975 103.298332,71.0693348 103.555,70.78 C103.811668,70.4906652 104.22933,70.2806673 104.808,70.15 C105.322373,70.0338513 106.010038,69.969325 106.871011,69.9564197 L107.552,69.954 L107.552,69.632 C107.552,69.165331 107.451668,68.8293344 107.251,68.624 C107.050332,68.4186656 106.716669,68.316 106.25,68.316 C105.885998,68.316 105.505669,68.3789994 105.109,68.505 C104.712331,68.6310006 104.322669,68.8059989 103.94,69.03 L103.45,67.826 C103.832669,67.5833321 104.294664,67.3826675 104.836,67.224 C105.377336,67.0653325 105.890664,66.986 106.376,66.986 Z M105.97,72.852 C106.436669,72.852 106.816999,72.6956682 107.111,72.383 C107.405001,72.0703318 107.552,71.6666691 107.552,71.172 L107.552,70.878 L107.3,70.878 C106.674664,70.878 106.189335,70.9059997 105.844,70.962 C105.498665,71.0180003 105.251334,71.1159993 105.102,71.256 C104.952666,71.3960007 104.878,71.5873321 104.878,71.83 C104.878,72.1286682 104.980666,72.3736657 105.186,72.565 C105.391334,72.7563343 105.652665,72.852 105.97,72.852 Z M114.818,70.472 L117.702,74 L115.63,74 L113.81,71.718 L112.004,74 L109.932,74 L112.802,70.472 L110.086,67.154 L112.172,67.154 L113.81,69.24 L115.448,67.154 L117.534,67.154 L114.818,70.472 Z M120.81,76.73 C120.128663,75.5726609 119.648001,74.490005 119.368,73.482 C119.087999,72.473995 118.948,71.4193388 118.948,70.318 C118.948,69.2166612 119.087999,68.162005 119.368,67.154 C119.648001,66.145995 120.128663,65.0633391 120.81,63.906 L121.972,64.382 C121.514664,65.511339 121.195001,66.5379954 121.013,67.462 C120.830999,68.3860046 120.74,69.3379951 120.74,70.318 C120.74,71.2980049 120.830999,72.2499954 121.013,73.174 C121.195001,74.0980046 121.514664,75.124661 121.972,76.254 L120.81,76.73 Z M126.662,74.126 C125.495328,74.126 124.604003,73.6943376 123.988,72.831 C123.371997,71.9676623 123.064,70.7100083 123.064,69.058 C123.064,67.4246585 123.371997,66.178671 123.988,65.32 C124.604003,64.461329 125.495328,64.032 126.662,64.032 C127.828673,64.032 128.719997,64.461329 129.336,65.32 C129.952003,66.178671 130.26,67.4246585 130.26,69.058 C130.26,70.7006749 129.952003,71.9559957 129.336,72.824 C128.719997,73.6920043 127.828673,74.126 126.662,74.126 Z M126.662,72.712 C127.29667,72.712 127.758665,72.4203363 128.048,71.837 C128.337335,71.2536638 128.482,70.3273397 128.482,69.058 C128.482,67.7979937 128.337335,66.8810029 128.048,66.307 C127.758665,65.7329971 127.29667,65.446 126.662,65.446 C126.02733,65.446 125.565335,65.7329971 125.276,66.307 C124.986665,66.8810029 124.842,67.7979937 124.842,69.058 C124.842,70.3273397 124.986665,71.2536638 125.276,71.837 C125.565335,72.4203363 126.02733,72.712 126.662,72.712 Z M133.578,72.068 L133.578,73.342 C133.578,73.8273358 133.494001,74.2683313 133.326,74.665 C133.157999,75.0616687 132.873335,75.4606647 132.472,75.862 L131.758,75.302 C132.196669,74.835331 132.448666,74.4013353 132.514,74 L131.618,74 L131.618,72.068 L133.578,72.068 Z M142.86,70.472 L145.744,74 L143.672,74 L141.852,71.718 L140.046,74 L137.974,74 L140.844,70.472 L138.128,67.154 L140.214,67.154 L141.852,69.24 L143.49,67.154 L145.576,67.154 L142.86,70.472 Z M146.066,76.254 C146.523336,75.124661 146.842999,74.0980046 147.025,73.174 C147.207001,72.2499954 147.298,71.2980049 147.298,70.318 C147.298,69.3379951 147.207001,68.3860046 147.025,67.462 C146.842999,66.5379954 146.523336,65.511339 146.066,64.382 L147.228,63.906 C147.909337,65.0633391 148.389999,66.145995 148.67,67.154 C148.950001,68.162005 149.09,69.2166612 149.09,70.318 C149.09,71.4193388 148.950001,72.473995 148.67,73.482 C148.389999,74.490005 147.909337,75.5726609 147.228,76.73 L146.066,76.254 Z" id="f(x)=max(0,x)" fill="#0F1931" fill-rule="nonzero"></path>
    </g>
</svg>