<?xml version="1.0" encoding="UTF-8"?>
<svg width="376px" height="293px" viewBox="0 0 376 293" version="1.1" xmlns="http://www.w3.org/2000/svg" xmlns:xlink="http://www.w3.org/1999/xlink">
    <!-- Generator: Sketch 59.1 (86144) - https://sketch.com -->
    <title>Sigmoid </title>
    <desc>Created with Sketch.</desc>
    <g id="Sigmoid-" stroke="none" stroke-width="1" fill="none" fill-rule="evenodd">
        <rect fill="#FFFFFF" x="0" y="0" width="376" height="293"></rect>
        <g id="Group-2" transform="translate(13.000000, 16.000000)" fill-rule="nonzero">
            <g id="Grid" transform="translate(27.000000, 32.500000)" fill="#DBE5FD">
                <g id="Bl-Grey">
                    <g id="Ver" transform="translate(76.965995, 0.000000)">
                        <rect id="Rectangle-Copy" x="0.0340050378" y="0.5" width="2" height="204"></rect>
                        <rect id="Rectangle-Copy-4" x="80.034005" y="0.5" width="2" height="204"></rect>
                        <rect id="Rectangle-Copy-5" x="160.034005" y="0.5" width="2" height="204"></rect>
                    </g>
                    <g id="Hor" transform="translate(0.000000, 39.417795)">
                        <polygon id="Rectangle-Copy-12" transform="translate(158.500000, 1.870465) rotate(-90.000000) translate(-158.500000, -1.870465) " points="157.699226 -156.629535 159.300774 -156.629535 159.300774 160.370465 157.699226 160.370465"></polygon>
                        <polygon id="Rectangle-Copy-13" transform="translate(158.500000, 41.645202) rotate(-90.000000) translate(-158.500000, -41.645202) " points="157.699226 -116.854798 159.300774 -116.854798 159.300774 200.145202 157.699226 200.145202"></polygon>
                        <polygon id="Rectangle-Copy-14" transform="translate(158.500000, 84.019049) rotate(-90.000000) translate(-158.500000, -84.019049) " points="157.699226 -74.4809512 159.300774 -74.4809512 159.300774 242.519049 157.699226 242.519049"></polygon>
                        <polygon id="Rectangle-Copy-15" transform="translate(158.500000, 125.392895) rotate(-90.000000) translate(-158.500000, -125.392895) " points="157.699226 -33.1071045 159.300774 -33.1071045 159.300774 283.892895 157.699226 283.892895"></polygon>
                    </g>
                </g>
            </g>
            <path d="M341,33 C342.656854,33 344,34.3431458 344,36 L344,234 C344,235.656854 342.656854,237 341,237 L28.9853302,237 C27.334216,237 25.9934598,235.6658 25.9853662,234.014706 L25.0147411,36.0147057 C25.0066562,34.3578714 26.3432019,33.0081578 28.0000362,33 L341,33 Z M28.0049381,34 C26.9003819,34.0054385 26.0093515,34.9052476 26.0147171,36.0098038 L26.9853542,234.009804 C26.9907499,235.110533 27.8845874,236 28.9853302,236 L341,236 C342.104569,236 343,235.104569 343,234 L343,36 C343,34.9456382 342.184122,34.0818349 341.149262,34.0054857 L341,34 L28.0049381,34 Z" id="Rectangle" fill="#0F1931"></path>
            <g id="X-Axis" transform="translate(20.000000, 235.500000)" fill="#0F1931">
                <path d="M0.595,19.0183146 L0.595,18.3483146 L3.395,18.3483146 L3.395,19.0183146 L0.595,19.0183146 Z M7.795,20.6583146 L9.345,20.6583146 L9.345,21.3483146 L5.425,21.3483146 L5.425,20.6583146 L6.975,20.6583146 L6.975,15.3183146 L5.735,16.0983146 L5.355,15.4683146 L7.205,14.2983146 L7.795,14.2983146 L7.795,20.6583146 Z" id="-10"></path>
                <path d="M13.125,14.2183146 C13.9316707,14.2183146 14.5449979,14.5233116 14.965,15.1333146 C15.3850021,15.7433177 15.595,16.6383087 15.595,17.8183146 C15.595,18.9983205 15.3850021,19.8949782 14.965,20.5083146 C14.5449979,21.121651 13.9316707,21.4283146 13.125,21.4283146 C12.3183293,21.4283146 11.7050021,21.121651 11.285,20.5083146 C10.8649979,19.8949782 10.655,19.0016538 10.655,17.8283146 C10.655,16.6483087 10.8649979,15.751651 11.285,15.1383146 C11.7050021,14.5249782 12.3183293,14.2183146 13.125,14.2183146 Z M13.125,14.9183146 C12.5649972,14.9183146 12.151668,15.1516456 11.885,15.6183146 C11.618332,16.0849836 11.485,16.8183096 11.485,17.8183146 C11.485,18.8183196 11.618332,19.5549789 11.885,20.0283146 C12.151668,20.5016503 12.5649972,20.7383146 13.125,20.7383146 C13.6850028,20.7383146 14.098332,20.5016503 14.365,20.0283146 C14.631668,19.5549789 14.765,18.8183196 14.765,17.8183146 C14.765,16.8116429 14.6333346,16.0766503 14.37,15.6133146 C14.1066653,15.149979 13.6916695,14.9183146 13.125,14.9183146 Z" id="Combined-Shape"></path>
                <path d="M80.795,19.0183146 L80.795,18.3483146 L83.595,18.3483146 L83.595,19.0183146 L80.795,19.0183146 Z M87.625,16.9283146 C88.0716689,16.9283146 88.4599983,17.021647 88.79,17.2083146 C89.1200016,17.3949822 89.3749991,17.6566463 89.555,17.9933146 C89.7350009,18.329983 89.825,18.7183124 89.825,19.1583146 C89.825,19.6049835 89.7266676,19.9983129 89.53,20.3383146 C89.3333323,20.6783163 89.0550018,20.9433137 88.695,21.1333146 C88.3349982,21.3233156 87.9150024,21.4183146 87.435,21.4183146 C87.0083312,21.4183146 86.5866687,21.3399821 86.17,21.1833146 C85.7533312,21.0266472 85.4016681,20.8149826 85.115,20.5483146 L85.425,19.9183146 C86.0783366,20.4583173 86.7483299,20.7283146 87.435,20.7283146 C87.9283358,20.7283146 88.3149986,20.588316 88.595,20.3083146 C88.8750014,20.0283132 89.015,19.648317 89.015,19.1683146 C89.015,18.7016456 88.876668,18.3249827 88.6,18.0383146 C88.3233319,17.7516465 87.9550023,17.6083146 87.495,17.6083146 C86.8216633,17.6083146 86.285002,17.8816452 85.885,18.4283146 L85.315,18.4283146 L85.315,14.2983146 L89.545,14.2983146 L89.545,14.9783146 L86.125,14.9783146 L86.125,17.4883146 C86.3116676,17.3083137 86.533332,17.1699818 86.79,17.0733146 C87.0466679,16.9766475 87.3249985,16.9283146 87.625,16.9283146 Z" id="-5"></path>
                <path d="M165.4,14.2183146 C166.206671,14.2183146 166.819998,14.5233116 167.24,15.1333146 C167.660002,15.7433177 167.87,16.6383087 167.87,17.8183146 C167.87,18.9983205 167.660002,19.8949782 167.24,20.5083146 C166.819998,21.121651 166.206671,21.4283146 165.4,21.4283146 C164.593329,21.4283146 163.980002,21.121651 163.56,20.5083146 C163.139998,19.8949782 162.93,19.0016538 162.93,17.8283146 C162.93,16.6483087 163.139998,15.751651 163.56,15.1383146 C163.980002,14.5249782 164.593329,14.2183146 165.4,14.2183146 Z M165.4,14.9183146 C164.839997,14.9183146 164.426668,15.1516456 164.16,15.6183146 C163.893332,16.0849836 163.76,16.8183096 163.76,17.8183146 C163.76,18.8183196 163.893332,19.5549789 164.16,20.0283146 C164.426668,20.5016503 164.839997,20.7383146 165.4,20.7383146 C165.960003,20.7383146 166.373332,20.5016503 166.64,20.0283146 C166.906668,19.5549789 167.04,18.8183196 167.04,17.8183146 C167.04,16.8116429 166.908335,16.0766503 166.645,15.6133146 C166.381665,15.149979 165.96667,14.9183146 165.4,14.9183146 Z" id="0"></path>
                <path d="M245.1,16.9283146 C245.546669,16.9283146 245.934998,17.021647 246.265,17.2083146 C246.595002,17.3949822 246.849999,17.6566463 247.03,17.9933146 C247.210001,18.329983 247.3,18.7183124 247.3,19.1583146 C247.3,19.6049835 247.201668,19.9983129 247.005,20.3383146 C246.808332,20.6783163 246.530002,20.9433137 246.17,21.1333146 C245.809998,21.3233156 245.390002,21.4183146 244.91,21.4183146 C244.483331,21.4183146 244.061669,21.3399821 243.645,21.1833146 C243.228331,21.0266472 242.876668,20.8149826 242.59,20.5483146 L242.9,19.9183146 C243.553337,20.4583173 244.22333,20.7283146 244.91,20.7283146 C245.403336,20.7283146 245.789999,20.588316 246.07,20.3083146 C246.350001,20.0283132 246.49,19.648317 246.49,19.1683146 C246.49,18.7016456 246.351668,18.3249827 246.075,18.0383146 C245.798332,17.7516465 245.430002,17.6083146 244.97,17.6083146 C244.296663,17.6083146 243.760002,17.8816452 243.36,18.4283146 L242.79,18.4283146 L242.79,14.2983146 L247.02,14.2983146 L247.02,14.9783146 L243.6,14.9783146 L243.6,17.4883146 C243.786668,17.3083137 244.008332,17.1699818 244.265,17.0733146 C244.521668,16.9766475 244.799998,16.9283146 245.1,16.9283146 Z" id="5"></path>
                <path d="M323,14.2183146 C323.806671,14.2183146 324.419998,14.5233116 324.84,15.1333146 C325.260002,15.7433177 325.47,16.6383087 325.47,17.8183146 C325.47,18.9983205 325.260002,19.8949782 324.84,20.5083146 C324.419998,21.121651 323.806671,21.4283146 323,21.4283146 C322.193329,21.4283146 321.580002,21.121651 321.16,20.5083146 C320.739998,19.8949782 320.53,19.0016538 320.53,17.8283146 C320.53,16.6483087 320.739998,15.751651 321.16,15.1383146 C321.580002,14.5249782 322.193329,14.2183146 323,14.2183146 Z M323,14.9183146 C322.439997,14.9183146 322.026668,15.1516456 321.76,15.6183146 C321.493332,16.0849836 321.36,16.8183096 321.36,17.8183146 C321.36,18.8183196 321.493332,19.5549789 321.76,20.0283146 C322.026668,20.5016503 322.439997,20.7383146 323,20.7383146 C323.560003,20.7383146 323.973332,20.5016503 324.24,20.0283146 C324.506668,19.5549789 324.64,18.8183196 324.64,17.8183146 C324.64,16.8116429 324.508335,16.0766503 324.245,15.6133146 C323.981665,15.149979 323.56667,14.9183146 323,14.9183146 Z M317.67,20.6583146 L319.22,20.6583146 L319.22,21.3483146 L315.3,21.3483146 L315.3,20.6583146 L316.85,20.6583146 L316.85,15.3183146 L315.61,16.0983146 L315.23,15.4683146 L317.08,14.2983146 L317.67,14.2983146 L317.67,20.6583146 Z" id="10"></path>
                <g id="Ticks" transform="translate(164.826966, 3.126966) rotate(-90.000000) translate(-164.826966, -3.126966) translate(162.326966, -153.873034)">
                    <path d="M4.12696629,-0.226966292 L0.126966292,-0.226966292 C-0.425318458,-0.226966292 -0.873033708,0.220748958 -0.873033708,0.773033708 C-0.873033708,1.32531846 -0.425318458,1.77303371 0.126966292,1.77303371 L4.12696629,1.77303371 C4.67925104,1.77303371 5.12696629,1.32531846 5.12696629,0.773033708 C5.12696629,0.220748958 4.67925104,-0.226966292 4.12696629,-0.226966292 Z" id="1"></path>
                    <path d="M4.12696629,76.1730337 L0.126966292,76.1730337 C-0.425318458,76.1730337 -0.873033708,76.620749 -0.873033708,77.1730337 C-0.873033708,77.7253185 -0.425318458,78.1730337 0.126966292,78.1730337 L4.12696629,78.1730337 C4.67925104,78.1730337 5.12696629,77.7253185 5.12696629,77.1730337 C5.12696629,76.620749 4.67925104,76.1730337 4.12696629,76.1730337 Z" id="2"></path>
                    <path d="M4.12696629,156.173034 L0.126966292,156.173034 C-0.425318458,156.173034 -0.873033708,156.620749 -0.873033708,157.173034 C-0.873033708,157.725318 -0.425318458,158.173034 0.126966292,158.173034 L4.12696629,158.173034 C4.67925104,158.173034 5.12696629,157.725318 5.12696629,157.173034 C5.12696629,156.620749 4.67925104,156.173034 4.12696629,156.173034 Z" id="4"></path>
                    <path d="M4.12696629,236.173034 L0.126966292,236.173034 C-0.425318458,236.173034 -0.873033708,236.620749 -0.873033708,237.173034 C-0.873033708,237.725318 -0.425318458,238.173034 0.126966292,238.173034 L4.12696629,238.173034 C4.67925104,238.173034 5.12696629,237.725318 5.12696629,237.173034 C5.12696629,236.620749 4.67925104,236.173034 4.12696629,236.173034 Z" id="6"></path>
                    <path d="M4.12696629,311.773034 L0.126966292,311.773034 C-0.425318458,311.773034 -0.873033708,312.220749 -0.873033708,312.773034 C-0.873033708,313.325318 -0.425318458,313.773034 0.126966292,313.773034 L4.12696629,313.773034 C4.67925104,313.773034 5.12696629,313.325318 5.12696629,312.773034 C5.12696629,312.220749 4.67925104,311.773034 4.12696629,311.773034 Z" id="8"></path>
                </g>
            </g>
            <g id="Y-Axis" transform="translate(0.000000, 31.500000)" fill="#0F1931">
                <path d="M11.4615385,0.37 C12.2682092,0.37 12.8815364,0.67499695 13.3015385,1.285 C13.7215406,1.89500305 13.9315385,2.7899941 13.9315385,3.97 C13.9315385,5.1500059 13.7215406,6.0466636 13.3015385,6.66 C12.8815364,7.2733364 12.2682092,7.58 11.4615385,7.58 C10.6548678,7.58 10.0415406,7.2733364 9.62153846,6.66 C9.20153636,6.0466636 8.99153846,5.1533392 8.99153846,3.98 C8.99153846,2.7999941 9.20153636,1.9033364 9.62153846,1.29 C10.0415406,0.6766636 10.6548678,0.37 11.4615385,0.37 Z M11.4615385,1.07 C10.9015357,1.07 10.4882065,1.303331 10.2215385,1.77 C9.95487046,2.236669 9.82153846,2.969995 9.82153846,3.97 C9.82153846,4.970005 9.95487046,5.7066643 10.2215385,6.18 C10.4882065,6.6533357 10.9015357,6.89 11.4615385,6.89 C12.0215413,6.89 12.4348705,6.6533357 12.7015385,6.18 C12.9682065,5.7066643 13.1015385,4.970005 13.1015385,3.97 C13.1015385,2.9633283 12.9698731,2.22833565 12.7065385,1.765 C12.4432038,1.30166435 12.028208,1.07 11.4615385,1.07 Z M3.84153846,6.81 L5.39153846,6.81 L5.39153846,7.5 L1.47153846,7.5 L1.47153846,6.81 L3.02153846,6.81 L3.02153846,1.47 L1.78153846,2.25 L1.40153846,1.62 L3.25153846,0.45 L3.84153846,0.45 L3.84153846,6.81 Z M6.80153846,6.48 L7.82153846,6.48 L7.82153846,7.5 L6.80153846,7.5 L6.80153846,6.48 Z" id="1.0"></path>
                <path d="M11.4615385,38.37 C12.2015422,38.37 12.7798697,38.5383317 13.1965385,38.875 C13.6132072,39.2116683 13.8215385,39.6666638 13.8215385,40.24 C13.8215385,40.6266686 13.7182062,40.9649986 13.5115385,41.255 C13.3048708,41.5450015 13.0282069,41.7533327 12.6815385,41.88 C13.0948739,42.0066673 13.4165373,42.2233318 13.6465385,42.53 C13.8765396,42.8366682 13.9915385,43.2033312 13.9915385,43.63 C13.9915385,44.2366697 13.7715407,44.7116649 13.3315385,45.055 C12.8915363,45.3983351 12.2682092,45.57 11.4615385,45.57 C10.6548678,45.57 10.0315407,45.3983351 9.59153846,45.055 C9.15153626,44.7116649 8.93153846,44.2366697 8.93153846,43.63 C8.93153846,43.1966645 9.04820396,42.8266682 9.28153846,42.52 C9.51487296,42.2133318 9.83820306,42.0000006 10.2515385,41.88 C9.89820336,41.746666 9.61820616,41.5366681 9.41153846,41.25 C9.20487076,40.9633319 9.10153846,40.6266686 9.10153846,40.24 C9.10153846,39.6666638 9.30986971,39.2116683 9.72653846,38.875 C10.1432072,38.5383317 10.7215348,38.37 11.4615385,38.37 Z M11.4615385,42.27 C10.3148661,42.27 9.74153846,42.7066623 9.74153846,43.58 C9.74153846,44.4533377 10.3148661,44.89 11.4615385,44.89 C12.6082109,44.89 13.1815385,44.4533377 13.1815385,43.58 C13.1815385,42.7066623 12.6082109,42.27 11.4615385,42.27 Z M11.4615385,39.05 C10.9548693,39.05 10.5698731,39.1599989 10.3065385,39.38 C10.0432038,39.6000011 9.91153846,39.9066647 9.91153846,40.3 C9.91153846,40.7133354 10.0432038,41.0299989 10.3065385,41.25 C10.5698731,41.4700011 10.9548693,41.58 11.4615385,41.58 C11.9682077,41.58 12.3532038,41.4700011 12.6165385,41.25 C12.8798731,41.0299989 13.0115385,40.7133354 13.0115385,40.3 C13.0115385,39.9066647 12.8798731,39.6000011 12.6165385,39.38 C12.3532038,39.1599989 11.9682077,39.05 11.4615385,39.05 Z M3.17153846,45.58 C2.36486776,45.58 1.75154056,45.2733364 1.33153846,44.66 C0.911536362,44.0466636 0.701538462,43.1533392 0.701538462,41.98 C0.701538462,40.7999941 0.911536362,39.9033364 1.33153846,39.29 C1.75154056,38.6766636 2.36486776,38.37 3.17153846,38.37 C3.97820916,38.37 4.59153636,38.674997 5.01153846,39.285 C5.43154056,39.895003 5.64153846,40.7899941 5.64153846,41.97 C5.64153846,43.1500059 5.43154056,44.0466636 5.01153846,44.66 C4.59153636,45.2733364 3.97820916,45.58 3.17153846,45.58 Z M3.17153846,44.89 C3.73154126,44.89 4.14487046,44.6533357 4.41153846,44.18 C4.67820646,43.7066643 4.81153846,42.970005 4.81153846,41.97 C4.81153846,40.9633283 4.67987311,40.2283357 4.41653846,39.765 C4.15320381,39.3016643 3.73820796,39.07 3.17153846,39.07 C2.61153566,39.07 2.19820646,39.303331 1.93153846,39.77 C1.66487046,40.236669 1.53153846,40.969995 1.53153846,41.97 C1.53153846,42.970005 1.66487046,43.7066643 1.93153846,44.18 C2.19820646,44.6533357 2.61153566,44.89 3.17153846,44.89 Z M6.80153846,44.48 L7.82153846,44.48 L7.82153846,45.5 L6.80153846,45.5 L6.80153846,44.48 Z" id="0.8"></path>
                <path d="M3.18153846,85.58 C2.37486776,85.58 1.76154056,85.2733364 1.34153846,84.66 C0.921536362,84.0466636 0.711538462,83.1533392 0.711538462,81.98 C0.711538462,80.7999941 0.921536362,79.9033364 1.34153846,79.29 C1.76154056,78.6766636 2.37486776,78.37 3.18153846,78.37 C3.98820916,78.37 4.60153636,78.674997 5.02153846,79.285 C5.44154056,79.895003 5.65153846,80.7899941 5.65153846,81.97 C5.65153846,83.1500059 5.44154056,84.0466636 5.02153846,84.66 C4.60153636,85.2733364 3.98820916,85.58 3.18153846,85.58 Z M3.18153846,84.89 C3.74154126,84.89 4.15487046,84.6533357 4.42153846,84.18 C4.68820646,83.7066643 4.82153846,82.970005 4.82153846,81.97 C4.82153846,80.9633283 4.68987311,80.2283357 4.42653846,79.765 C4.16320381,79.3016643 3.74820796,79.07 3.18153846,79.07 C2.62153566,79.07 2.20820646,79.303331 1.94153846,79.77 C1.67487046,80.236669 1.54153846,80.969995 1.54153846,81.97 C1.54153846,82.970005 1.67487046,83.7066643 1.94153846,84.18 C2.20820646,84.6533357 2.62153566,84.89 3.18153846,84.89 Z M6.81153846,84.48 L7.83153846,84.48 L7.83153846,85.5 L6.81153846,85.5 L6.81153846,84.48 Z" id="0.6"></path>
                <path d="M11.7515385,78.37 C12.1582072,78.37 12.5548699,78.4449992 12.9415385,78.595 C13.3282071,78.7450008 13.6682037,78.9599986 13.9615385,79.24 L13.6515385,79.87 C13.3182035,79.5899986 12.9998733,79.3850006 12.6965385,79.255 C12.3932036,79.1249993 12.0848734,79.06 11.7715385,79.06 C11.1648688,79.06 10.6932068,79.3283306 10.3565385,79.865 C10.0198701,80.4016693 9.85153846,81.1599951 9.85153846,82.14 L9.85153846,82.29 C10.0048726,81.9166648 10.2515368,81.6200011 10.5915385,81.4 C10.9315402,81.1799989 11.3248696,81.07 11.7715385,81.07 C12.1982073,81.07 12.5782035,81.1633324 12.9115385,81.35 C13.2448735,81.5366676 13.5048709,81.7999983 13.6915385,82.14 C13.8782061,82.4800017 13.9715385,82.87 13.9715385,83.31 C13.9715385,83.7433355 13.8748728,84.1333316 13.6815385,84.48 C13.4882042,84.8266684 13.2182069,85.0966657 12.8715385,85.29 C12.5248701,85.4833343 12.134874,85.58 11.7015385,85.58 C10.8482009,85.58 10.1898741,85.2833363 9.72653846,84.69 C9.26320281,84.0966637 9.03153846,83.2500055 9.03153846,82.15 C9.03153846,81.3566627 9.13987071,80.6766695 9.35653846,80.11 C9.57320621,79.5433305 9.88486976,79.1116681 10.2915385,78.815 C10.6982072,78.5183318 11.184869,78.37 11.7515385,78.37 Z M11.6515385,81.76 C11.1915362,81.76 10.8165399,81.9049986 10.5265385,82.195 C10.236537,82.4850014 10.0915385,82.8599977 10.0915385,83.32 C10.0915385,83.786669 10.236537,84.1649986 10.5265385,84.455 C10.8165399,84.7450015 11.1948695,84.89 11.6615385,84.89 C12.1148741,84.89 12.4782038,84.7466681 12.7515385,84.46 C13.0248732,84.1733319 13.1615385,83.7933357 13.1615385,83.32 C13.1615385,82.853331 13.0232065,82.4766681 12.7465385,82.19 C12.4698704,81.9033319 12.1048741,81.76 11.6515385,81.76 Z" id="Combined-Shape"></path>
                <path d="M3.17153846,127.58 C2.36486776,127.58 1.75154056,127.273336 1.33153846,126.66 C0.911536362,126.046664 0.701538462,125.153339 0.701538462,123.98 C0.701538462,122.799994 0.911536362,121.903336 1.33153846,121.29 C1.75154056,120.676664 2.36486776,120.37 3.17153846,120.37 C3.97820916,120.37 4.59153636,120.674997 5.01153846,121.285 C5.43154056,121.895003 5.64153846,122.789994 5.64153846,123.97 C5.64153846,125.150006 5.43154056,126.046664 5.01153846,126.66 C4.59153636,127.273336 3.97820916,127.58 3.17153846,127.58 Z M3.17153846,126.89 C3.73154126,126.89 4.14487046,126.653336 4.41153846,126.18 C4.67820646,125.706664 4.81153846,124.970005 4.81153846,123.97 C4.81153846,122.963328 4.67987311,122.228336 4.41653846,121.765 C4.15320381,121.301664 3.73820796,121.07 3.17153846,121.07 C2.61153566,121.07 2.19820646,121.303331 1.93153846,121.77 C1.66487046,122.236669 1.53153846,122.969995 1.53153846,123.97 C1.53153846,124.970005 1.66487046,125.706664 1.93153846,126.18 C2.19820646,126.653336 2.61153566,126.89 3.17153846,126.89 Z M6.80153846,126.48 L7.82153846,126.48 L7.82153846,127.5 L6.80153846,127.5 L6.80153846,126.48 Z" id="0.4"></path>
                <path d="M13.0415385,120.45 L13.0415385,125.29 L14.1015385,125.29 L14.1015385,125.97 L13.0415385,125.97 L13.0415385,127.5 L12.2315385,127.5 L12.2315385,125.97 L8.97153846,125.97 L8.97153846,125.35 L12.3715385,120.45 L13.0415385,120.45 Z M12.2315385,121.82 L9.82153846,125.29 L12.2315385,125.29 L12.2315385,121.82 Z" id="Combined-Shape"></path>
                <path d="M3.17153846,169.58 C2.36486776,169.58 1.75154056,169.273336 1.33153846,168.66 C0.911536362,168.046664 0.701538462,167.153339 0.701538462,165.98 C0.701538462,164.799994 0.911536362,163.903336 1.33153846,163.29 C1.75154056,162.676664 2.36486776,162.37 3.17153846,162.37 C3.97820916,162.37 4.59153636,162.674997 5.01153846,163.285 C5.43154056,163.895003 5.64153846,164.789994 5.64153846,165.97 C5.64153846,167.150006 5.43154056,168.046664 5.01153846,168.66 C4.59153636,169.273336 3.97820916,169.58 3.17153846,169.58 Z M3.17153846,168.89 C3.73154126,168.89 4.14487046,168.653336 4.41153846,168.18 C4.67820646,167.706664 4.81153846,166.970005 4.81153846,165.97 C4.81153846,164.963328 4.67987311,164.228336 4.41653846,163.765 C4.15320381,163.301664 3.73820796,163.07 3.17153846,163.07 C2.61153566,163.07 2.19820646,163.303331 1.93153846,163.77 C1.66487046,164.236669 1.53153846,164.969995 1.53153846,165.97 C1.53153846,166.970005 1.66487046,167.706664 1.93153846,168.18 C2.19820646,168.653336 2.61153566,168.89 3.17153846,168.89 Z M6.80153846,168.48 L7.82153846,168.48 L7.82153846,169.5 L6.80153846,169.5 L6.80153846,168.48 Z M13.8515385,168.81 L13.8515385,169.5 L9.31153846,169.5 L9.31153846,168.88 L11.7815385,166.16 C12.1148735,165.786665 12.3565377,165.451668 12.5065385,165.155 C12.6565392,164.858332 12.7315385,164.560001 12.7315385,164.26 C12.7315385,163.873331 12.6182063,163.576668 12.3915385,163.37 C12.1648707,163.163332 11.8448739,163.06 11.4315385,163.06 C10.7515351,163.06 10.0848751,163.329997 9.43153846,163.87 L9.12153846,163.24 C9.40153986,162.973332 9.75320301,162.761667 10.1765385,162.605 C10.5998739,162.448333 11.0248697,162.37 11.4515385,162.37 C12.0982084,162.37 12.6098699,162.536665 12.9865385,162.87 C13.363207,163.203335 13.5515385,163.653331 13.5515385,164.22 C13.5515385,164.626669 13.4598727,165.016665 13.2765385,165.39 C13.0932042,165.763335 12.7915406,166.179998 12.3715385,166.64 L10.3715385,168.81 L13.8515385,168.81 Z" id="0.2"></path>
                <path d="M3.17153846,206.58 C2.36486776,206.58 1.75154056,206.273336 1.33153846,205.66 C0.911536362,205.046664 0.701538462,204.153339 0.701538462,202.98 C0.701538462,201.799994 0.911536362,200.903336 1.33153846,200.29 C1.75154056,199.676664 2.36486776,199.37 3.17153846,199.37 C3.97820916,199.37 4.59153636,199.674997 5.01153846,200.285 C5.43154056,200.895003 5.64153846,201.789994 5.64153846,202.97 C5.64153846,204.150006 5.43154056,205.046664 5.01153846,205.66 C4.59153636,206.273336 3.97820916,206.58 3.17153846,206.58 Z M3.17153846,205.89 C3.73154126,205.89 4.14487046,205.653336 4.41153846,205.18 C4.67820646,204.706664 4.81153846,203.970005 4.81153846,202.97 C4.81153846,201.963328 4.67987311,201.228336 4.41653846,200.765 C4.15320381,200.301664 3.73820796,200.07 3.17153846,200.07 C2.61153566,200.07 2.19820646,200.303331 1.93153846,200.77 C1.66487046,201.236669 1.53153846,201.969995 1.53153846,202.97 C1.53153846,203.970005 1.66487046,204.706664 1.93153846,205.18 C2.19820646,205.653336 2.61153566,205.89 3.17153846,205.89 Z M6.80153846,205.48 L7.82153846,205.48 L7.82153846,206.5 L6.80153846,206.5 L6.80153846,205.48 Z" id="0.0"></path>
                <path d="M11.4615385,199.37 C12.2682092,199.37 12.8815364,199.674997 13.3015385,200.285 C13.7215406,200.895003 13.9315385,201.789994 13.9315385,202.97 C13.9315385,204.150006 13.7215406,205.046664 13.3015385,205.66 C12.8815364,206.273336 12.2682092,206.58 11.4615385,206.58 C10.6548678,206.58 10.0415406,206.273336 9.62153846,205.66 C9.20153636,205.046664 8.99153846,204.153339 8.99153846,202.98 C8.99153846,201.799994 9.20153636,200.903336 9.62153846,200.29 C10.0415406,199.676664 10.6548678,199.37 11.4615385,199.37 Z M11.4615385,200.07 C10.9015357,200.07 10.4882065,200.303331 10.2215385,200.77 C9.95487046,201.236669 9.82153846,201.969995 9.82153846,202.97 C9.82153846,203.970005 9.95487046,204.706664 10.2215385,205.18 C10.4882065,205.653336 10.9015357,205.89 11.4615385,205.89 C12.0215413,205.89 12.4348705,205.653336 12.7015385,205.18 C12.9682065,204.706664 13.1015385,203.970005 13.1015385,202.97 C13.1015385,201.963328 12.9698731,201.228336 12.7065385,200.765 C12.4432038,200.301664 12.028208,200.07 11.4615385,200.07 Z" id="Combined-Shape"></path>
                <g id="ticks" transform="translate(21.628205, 3.409800)">
                    <path d="M3.37179487,37.8784601 L0.371794872,37.8784601 C-0.180489878,37.8784601 -0.628205128,38.3261753 -0.628205128,38.8784601 C-0.628205128,39.4307448 -0.180489878,39.8784601 0.371794872,39.8784601 L3.37179487,39.8784601 C3.92407962,39.8784601 4.37179487,39.4307448 4.37179487,38.8784601 C4.37179487,38.3261753 3.92407962,37.8784601 3.37179487,37.8784601 Z" id="5"></path>
                    <path d="M3.37179487,77.6531976 L0.371794872,77.6531976 C-0.180489878,77.6531976 -0.628205128,78.1009128 -0.628205128,78.6531976 C-0.628205128,79.2054823 -0.180489878,79.6531976 0.371794872,79.6531976 L3.37179487,79.6531976 C3.92407962,79.6531976 4.37179487,79.2054823 4.37179487,78.6531976 C4.37179487,78.1009128 3.92407962,77.6531976 3.37179487,77.6531976 Z" id="6"></path>
                    <path d="M3.37179487,120.027044 L0.374117942,120.027044 C-0.178166807,120.027044 -0.625882058,120.474759 -0.625882058,121.027044 C-0.625882058,121.579329 -0.178166807,122.027044 0.374117942,122.027044 L3.37179487,122.027044 C3.92407962,122.027044 4.37179487,121.579329 4.37179487,121.027044 C4.37179487,120.474759 3.92407962,120.027044 3.37179487,120.027044 Z" id="7"></path>
                    <path d="M3.37179487,161.400891 L0.371794872,161.400891 C-0.180489878,161.400891 -0.628205128,161.848606 -0.628205128,162.400891 C-0.628205128,162.953176 -0.180489878,163.400891 0.371794872,163.400891 L3.37179487,163.400891 C3.92407962,163.400891 4.37179487,162.953176 4.37179487,162.400891 C4.37179487,161.848606 3.92407962,161.400891 3.37179487,161.400891 Z" id="8"></path>
                    <path d="M3.37179487,-0.220489978 L0.371794872,-0.220489978 C-0.180489878,-0.220489978 -0.628205128,0.227225272 -0.628205128,0.779510022 C-0.628205128,1.33179477 -0.180489878,1.77951002 0.371794872,1.77951002 L3.37179487,1.77951002 C3.92407962,1.77951002 4.37179487,1.33179477 4.37179487,0.779510022 C4.37179487,0.227225272 3.92407962,-0.220489978 3.37179487,-0.220489978 Z" id="1"></path>
                    <path d="M5.37179487,198.400891 L1.37179487,198.400891 C0.819510122,198.400891 0.371794872,198.848606 0.371794872,199.400891 C0.371794872,199.953176 0.819510122,200.400891 1.37179487,200.400891 L5.37179487,200.400891 C5.92407962,200.400891 6.37179487,199.953176 6.37179487,199.400891 C6.37179487,198.848606 5.92407962,198.400891 5.37179487,198.400891 Z" id="8-copy"></path>
                </g>
                <path d="M27,200.5 L27,204.5 L48.2854383,204.504238 L54.276298,204.485212 C70.0700566,204.410917 78.4024825,204.149615 87.6524272,203.460229 L89.5161615,203.314101 C104.28325,202.09765 115.648521,199.734645 125.413777,195.633248 C147.069995,186.53766 161.813911,168.32888 176.370287,132.74089 C179.544113,124.981396 182.757181,116.279088 186.093544,106.430168 L186.896681,104.044308 C190.821155,92.3132119 194.532493,82.2230846 198.176191,73.4203388 C212.306082,39.2841917 226.306022,22.3007201 247.003593,13.8626815 C256.659801,9.92601415 268.116599,7.66748492 283.311071,6.51885988 L286.092888,6.32182236 L288.53909,6.16763924 C299.394439,5.52427272 310.882584,5.39555614 336.483456,5.40692068 L344,5.40979955 L344,1.40979955 L325.171811,1.41382978 L318.526372,1.43581123 C302.32045,1.51414004 293.712785,1.76847612 284.342168,2.43286521 L283.940079,2.46159076 C267.903496,3.61584209 255.790031,5.96096504 245.493531,10.1586683 C223.648731,19.064412 208.981448,36.8574447 194.480299,71.8905075 L193.717554,73.749382 L192.920877,75.7253004 C189.995306,83.0453557 187.01887,91.1960061 183.918059,100.354332 L182.306044,105.143756 L181.480704,107.564003 C178.463762,116.351328 175.547245,124.187311 172.668013,131.226568 C158.475846,165.924128 144.38437,183.327142 123.864851,191.945318 C114.342012,195.9449 103.100649,198.239118 88.2677756,199.401533 L86.2619678,199.551023 L83.2571076,199.751085 C73.9832885,200.323249 64.3077103,200.491123 45.3489171,200.508226 L27,200.5 Z" id="Path"></path>
            </g>
            <path d="M163.31,11.126 C162.553996,11.126 161.84467,11.0233344 161.182,10.818 C160.51933,10.6126656 159.959336,10.3233352 159.502,9.95 L160.104,8.634 C160.580002,8.99800182 161.081664,9.26399916 161.609,9.432 C162.136336,9.60000084 162.707997,9.684 163.324,9.684 C164.005337,9.684 164.530331,9.56500119 164.899,9.327 C165.267669,9.08899881 165.452,8.75533548 165.452,8.326 C165.452,7.9526648 165.281668,7.66800098 164.941,7.472 C164.600332,7.27599902 164.033337,7.08933422 163.24,6.912 C162.418663,6.73466578 161.751336,6.5293345 161.238,6.296 C160.724664,6.0626655 160.337335,5.76400182 160.076,5.4 C159.814665,5.03599818 159.684,4.5740028 159.684,4.014 C159.684,3.43533044 159.842665,2.91733562 160.16,2.46 C160.477335,2.00266438 160.92533,1.64566795 161.504,1.389 C162.08267,1.13233205 162.749996,1.004 163.506,1.004 C164.19667,1.004 164.854664,1.10899895 165.48,1.319 C166.105336,1.52900105 166.618665,1.81599818 167.02,2.18 L166.418,3.496 C165.540662,2.7959965 164.570005,2.446 163.506,2.446 C162.87133,2.446 162.369669,2.57433205 162.001,2.831 C161.632331,3.08766795 161.448,3.44466438 161.448,3.902 C161.448,4.28466858 161.611332,4.57866564 161.938,4.784 C162.228372,4.96651943 162.699413,5.13797481 163.351135,5.29837017 L163.604,5.358 C164.434671,5.5446676 165.108997,5.75233219 165.627,5.981 C166.145003,6.20966781 166.541665,6.50133156 166.817,6.856 C167.092335,7.21066844 167.23,7.65866396 167.23,8.2 C167.23,8.78800294 167.073668,9.30366445 166.761,9.747 C166.448332,10.1903356 165.99567,10.5309988 165.403,10.769 C164.81033,11.0070012 164.112671,11.126 163.31,11.126 Z M168.742,11 L168.742,4.154 L170.492,4.154 L170.492,11 L168.742,11 Z M168.644,0.976 L170.576,0.976 L170.576,2.698 L168.644,2.698 L168.644,0.976 Z M178.962,4.154 L178.962,10.37 C178.962,11.4433387 178.66567,12.2553306 178.073,12.806 C177.48033,13.3566694 176.605339,13.632 175.448,13.632 C174.850664,13.632 174.276669,13.5550008 173.726,13.401 C173.175331,13.2469992 172.694669,13.0300014 172.284,12.75 L172.774,11.518 C173.623338,12.0313359 174.500662,12.288 175.406,12.288 C176.619339,12.288 177.226,11.6906726 177.226,10.496 L177.226,9.6 C177.020666,9.98266858 176.722002,10.2789989 176.33,10.489 C175.937998,10.699001 175.490003,10.804 174.986,10.804 C174.388664,10.804 173.859002,10.6616681 173.397,10.377 C172.934998,10.0923319 172.573335,9.6933359 172.312,9.18 C172.050665,8.6666641 171.92,8.07400336 171.92,7.402 C171.92,6.72999664 172.048332,6.13500259 172.305,5.617 C172.561668,5.09899741 172.923331,4.69766809 173.39,4.413 C173.856669,4.12833191 174.388664,3.986 174.986,3.986 C175.490003,3.986 175.937998,4.09099895 176.33,4.301 C176.722002,4.51100105 177.020666,4.80733142 177.226,5.19 L177.226,4.154 L178.962,4.154 Z M175.448,9.446 C176.008003,9.446 176.444332,9.26400182 176.757,8.9 C177.069668,8.53599818 177.226,8.03666984 177.226,7.402 C177.226,6.75799678 177.069668,6.25400182 176.757,5.89 C176.444332,5.52599818 176.008003,5.344 175.448,5.344 C174.897331,5.344 174.463335,5.52599818 174.146,5.89 C173.828665,6.25400182 173.67,6.75799678 173.67,7.402 C173.67,8.02733646 173.828665,8.52433149 174.146,8.893 C174.463335,9.26166851 174.897331,9.446 175.448,9.446 Z M188.902,3.986 C189.676671,3.986 190.255331,4.21699769 190.638,4.679 C191.020669,5.14100231 191.212,5.84799524 191.212,6.8 L191.212,11 L189.462,11 L189.462,6.87 C189.462,6.34733072 189.373334,5.96700119 189.196,5.729 C189.018666,5.49099881 188.734002,5.372 188.342,5.372 C187.875331,5.372 187.511335,5.53066508 187.25,5.848 C186.988665,6.16533492 186.858,6.60866382 186.858,7.178 L186.858,11 L185.108,11 L185.108,6.87 C185.108,6.34733072 185.021668,5.96700119 184.849,5.729 C184.676332,5.49099881 184.389335,5.372 183.988,5.372 C183.530664,5.372 183.171335,5.53066508 182.91,5.848 C182.648665,6.16533492 182.518,6.60866382 182.518,7.178 L182.518,11 L180.768,11 L180.768,4.154 L182.476,4.154 L182.476,5.12 C182.681334,4.7466648 182.965998,4.46433429 183.33,4.273 C183.694002,4.08166571 184.109331,3.986 184.576,3.986 C185.612005,3.986 186.297998,4.41532904 186.634,5.274 C186.848668,4.87266466 187.156665,4.55766781 187.558,4.329 C187.959335,4.10033219 188.407331,3.986 188.902,3.986 Z M196.112,11.112 C195.411996,11.112 194.798336,10.9673348 194.271,10.678 C193.743664,10.3886652 193.335335,9.97333604 193.046,9.432 C192.756665,8.89066396 192.612,8.26067026 192.612,7.542 C192.612,6.82332974 192.756665,6.19566935 193.046,5.659 C193.335335,5.12233065 193.743664,4.70933478 194.271,4.42 C194.798336,4.13066522 195.411996,3.986 196.112,3.986 C196.812003,3.986 197.425664,4.13066522 197.953,4.42 C198.480336,4.70933478 198.886332,5.12233065 199.171,5.659 C199.455668,6.19566935 199.598,6.82332974 199.598,7.542 C199.598,8.26067026 199.455668,8.89066396 199.171,9.432 C198.886332,9.97333604 198.480336,10.3886652 197.953,10.678 C197.425664,10.9673348 196.812003,11.112 196.112,11.112 Z M196.098,9.754 C196.667336,9.754 197.101332,9.5673352 197.4,9.194 C197.698668,8.8206648 197.848,8.27000364 197.848,7.542 C197.848,6.82332974 197.698668,6.27500189 197.4,5.897 C197.101332,5.51899811 196.672003,5.33 196.112,5.33 C195.551997,5.33 195.120335,5.51899811 194.817,5.897 C194.513665,6.27500189 194.362,6.82332974 194.362,7.542 C194.362,8.27000364 194.511332,8.8206648 194.81,9.194 C195.108668,9.5673352 195.537997,9.754 196.098,9.754 Z M201.04,11 L201.04,4.154 L202.79,4.154 L202.79,11 L201.04,11 Z M200.942,0.976 L202.874,0.976 L202.874,2.698 L200.942,2.698 L200.942,0.976 Z" id="Sigmoid" fill="#0F1931"></path>
            <path d="M211.204,1.13 L211.204,11 L209.468,11 L209.468,9.894 C209.262666,10.2766686 208.966335,10.5753323 208.579,10.79 C208.191665,11.0046677 207.750669,11.112 207.256,11.112 C206.667997,11.112 206.143002,10.9626682 205.681,10.664 C205.218998,10.3653318 204.859668,9.94300273 204.603,9.397 C204.346332,8.85099727 204.218,8.22333688 204.218,7.514 C204.218,6.80466312 204.346332,6.18400266 204.603,5.652 C204.859668,5.11999734 205.216664,4.70933478 205.674,4.42 C206.131336,4.13066522 206.658664,3.986 207.256,3.986 C207.750669,3.986 208.189331,4.08866564 208.572,4.294 C208.954669,4.49933436 209.248666,4.7886648 209.454,5.162 L209.454,1.13 L211.204,1.13 Z M207.732,5.344 C207.171997,5.344 206.738002,5.5306648 206.43,5.904 C206.121998,6.2773352 205.968,6.8139965 205.968,7.514 C205.968,8.22333688 206.121998,8.77399804 206.43,9.166 C206.738002,9.55800196 207.167331,9.754 207.718,9.754 C208.278003,9.754 208.709665,9.56266858 209.013,9.18 C209.316335,8.79733142 209.468,8.25133688 209.468,7.542 C209.468,6.83266312 209.316335,6.28900189 209.013,5.911 C208.709665,5.53299811 208.282669,5.344 207.732,5.344 Z" id="Combined-Shape" fill="#0F1931"></path>
        </g>
        <path d="M55.136,67.154 L56.942,67.154 L56.942,68.47 L55.136,68.47 L55.136,74 L53.386,74 L53.386,68.47 L52.07,68.47 L52.07,67.154 L53.386,67.154 C53.386,66.1739951 53.6403308,65.4366691 54.149,64.942 C54.6152801,64.4885533 55.3187899,64.2194119 56.2595475,64.1345695 L57.208,64.074 L57.32,65.376 L56.662,65.404 C56.1113306,65.4320001 55.7193345,65.5556656 55.486,65.775 C55.2526655,65.9943344 55.136,66.3466642 55.136,66.832 L55.136,67.154 Z M60.288,76.73 C59.6066633,75.5726609 59.1260014,74.490005 58.846,73.482 C58.5659986,72.473995 58.426,71.4193388 58.426,70.318 C58.426,69.2166612 58.5659986,68.162005 58.846,67.154 C59.1260014,66.145995 59.6066633,65.0633391 60.288,63.906 L61.45,64.382 C60.9926644,65.511339 60.6730009,66.5379954 60.491,67.462 C60.3089991,68.3860046 60.218,69.3379951 60.218,70.318 C60.218,71.2980049 60.3089991,72.2499954 60.491,73.174 C60.6730009,74.0980046 60.9926644,75.124661 61.45,76.254 L60.288,76.73 Z M66.672,70.472 L69.556,74 L67.484,74 L65.664,71.718 L63.858,74 L61.786,74 L64.656,70.472 L61.94,67.154 L64.026,67.154 L65.664,69.24 L67.302,67.154 L69.388,67.154 L66.672,70.472 Z M69.878,76.254 C70.3353356,75.124661 70.6549991,74.0980046 70.837,73.174 C71.0190009,72.2499954 71.11,71.2980049 71.11,70.318 C71.11,69.3379951 71.0190009,68.3860046 70.837,67.462 C70.6549991,66.5379954 70.3353356,65.511339 69.878,64.382 L71.04,63.906 C71.7213367,65.0633391 72.2019986,66.145995 72.482,67.154 C72.7620014,68.162005 72.902,69.2166612 72.902,70.318 C72.902,71.4193388 72.7620014,72.473995 72.482,73.482 C72.2019986,74.490005 71.7213367,75.5726609 71.04,76.73 L69.878,76.254 Z M81.932,67.98 L81.932,69.212 L75.1,69.212 L75.1,67.98 L81.932,67.98 Z M81.932,70.78 L81.932,72.012 L75.1,72.012 L75.1,70.78 L81.932,70.78 Z M88.26,72.544 L90.402,72.544 L90.402,74 L84.312,74 L84.312,72.544 L86.454,72.544 L86.454,66.188 L84.76,67.21 L84.046,65.894 L86.972,64.13 L88.26,64.13 L88.26,72.544 Z M92.166,75.022 L90.836,74.602 L94.434,63.346 L95.764,63.766 L92.166,75.022 Z M98.774,76.73 C98.0926633,75.5726609 97.6120014,74.490005 97.332,73.482 C97.0519986,72.473995 96.912,71.4193388 96.912,70.318 C96.912,69.2166612 97.0519986,68.162005 97.332,67.154 C97.6120014,66.145995 98.0926633,65.0633391 98.774,63.906 L99.936,64.382 C99.4786644,65.511339 99.1590009,66.5379954 98.977,67.462 C98.7949991,68.3860046 98.704,69.3379951 98.704,70.318 C98.704,71.2980049 98.7949991,72.2499954 98.977,73.174 C99.1590009,74.0980046 99.4786644,75.124661 99.936,76.254 L98.774,76.73 Z M105.97,72.544 L108.112,72.544 L108.112,74 L102.022,74 L102.022,72.544 L104.164,72.544 L104.164,66.188 L102.47,67.21 L101.756,65.894 L104.682,64.13 L105.97,64.13 L105.97,72.544 Z M116.442,69.38 L116.442,70.612 L113.642,70.612 L113.642,73.412 L112.41,73.412 L112.41,70.612 L109.61,70.612 L109.61,69.38 L112.41,69.38 L112.41,66.58 L113.642,66.58 L113.642,69.38 L116.442,69.38 Z M124.142,70.892 L119.48,70.892 C119.536,71.5266698 119.727332,71.9979985 120.054,72.306 C120.380668,72.6140015 120.84733,72.768 121.454,72.768 C122.210004,72.768 122.900664,72.5253358 123.526,72.04 L124.03,73.244 C123.712665,73.5053346 123.313669,73.7153325 122.833,73.874 C122.352331,74.0326675 121.869336,74.112 121.384,74.112 C120.263994,74.112 119.37967,73.7946698 118.731,73.16 C118.08233,72.5253302 117.758,71.6573388 117.758,70.556 C117.758,69.8559965 117.897999,69.235336 118.178,68.694 C118.458001,68.152664 118.852331,67.7326682 119.361,67.434 C119.869669,67.1353318 120.445997,66.986 121.09,66.986 C122.032671,66.986 122.776997,67.2893303 123.323,67.896 C123.869003,68.5026697 124.142,69.3379947 124.142,70.402 L124.142,70.892 Z M121.132,68.218 C120.665331,68.218 120.289668,68.3673318 120.005,68.666 C119.720332,68.9646682 119.545334,69.3939972 119.48,69.954 L122.644,69.954 C122.625333,69.3846638 122.485335,68.9530015 122.224,68.659 C121.962665,68.3649985 121.598669,68.218 121.132,68.218 Z M132.416,72.012 L131.072,72.012 L128.86,66.748 L126.648,72.012 L125.304,72.012 L128.202,65.18 L129.518,65.18 L132.416,72.012 Z M136.336,76.73 C135.654663,75.5726609 135.174001,74.490005 134.894,73.482 C134.613999,72.473995 134.474,71.4193388 134.474,70.318 C134.474,69.2166612 134.613999,68.162005 134.894,67.154 C135.174001,66.145995 135.654663,65.0633391 136.336,63.906 L137.498,64.382 C137.040664,65.511339 136.721001,66.5379954 136.539,67.462 C136.356999,68.3860046 136.266,69.3379951 136.266,70.318 C136.266,71.2980049 136.356999,72.2499954 136.539,73.174 C136.721001,74.0980046 137.040664,75.124661 137.498,76.254 L136.336,76.73 Z M138.94,70.948 L138.94,69.562 L143.112,69.562 L143.112,70.948 L138.94,70.948 Z M148.796,70.472 L151.68,74 L149.608,74 L147.788,71.718 L145.982,74 L143.91,74 L146.78,70.472 L144.064,67.154 L146.15,67.154 L147.788,69.24 L149.426,67.154 L151.512,67.154 L148.796,70.472 Z M152.002,76.254 C152.459336,75.124661 152.778999,74.0980046 152.961,73.174 C153.143001,72.2499954 153.234,71.2980049 153.234,70.318 C153.234,69.3379951 153.143001,68.3860046 152.961,67.462 C152.778999,66.5379954 152.459336,65.511339 152.002,64.382 L153.164,63.906 C153.845337,65.0633391 154.325999,66.145995 154.606,67.154 C154.886001,68.162005 155.026,69.2166612 155.026,70.318 C155.026,71.4193388 154.886001,72.473995 154.606,73.482 C154.325999,74.490005 153.845337,75.5726609 153.164,76.73 L152.002,76.254 Z M156.93,76.254 C157.387336,75.124661 157.706999,74.0980046 157.889,73.174 C158.071001,72.2499954 158.162,71.2980049 158.162,70.318 C158.162,69.3379951 158.071001,68.3860046 157.889,67.462 C157.706999,66.5379954 157.387336,65.511339 156.93,64.382 L158.092,63.906 C158.773337,65.0633391 159.253999,66.145995 159.534,67.154 C159.814001,68.162005 159.954,69.2166612 159.954,70.318 C159.954,71.4193388 159.814001,72.473995 159.534,73.482 C159.253999,74.490005 158.773337,75.5726609 158.092,76.73 L156.93,76.254 Z" id="f(x)=1/(1+e^(-x))" fill="#0F1931" fill-rule="nonzero"></path>
    </g>
</svg>